  0
SECTION
  2
HEADER
  9
$ACADVER
  1
AC1015
  9
$ACADMAINTVER
 70
     6
  9
$DWGCODEPAGE
  3
ANSI_1252
  9
$INSBASE
 10
0.0
 20
0.0
 30
0.0
  9
$EXTMIN
 10
-239.9999475323
 20
-99.7886978291
 30
0.0
  9
$EXTMAX
 10
60.0
 20
99.8019352583
 30
0.0
  9
$LIMMIN
 10
0.0
 20
0.0
  9
$LIMMAX
 10
420.0
 20
297.0
  9
$ORTHOMODE
 70
     0
  9
$REGENMODE
 70
     1
  9
$FILLMODE
 70
     1
  9
$QTEXTMODE
 70
     0
  9
$MIRRTEXT
 70
     1
  9
$LTSCALE
 40
1.0
  9
$ATTMODE
 70
     1
  9
$TEXTSIZE
 40
3.5
  9
$TRACEWID
 40
1.0
  9
$TEXTSTYLE
  7
Standard
  9
$CLAYER
  8
0
  9
$CELTYPE
  6
ByLayer
  9
$CECOLOR
 62
   256
  9
$CELTSCALE
 40
1.0
  9
$DISPSILH
 70
     0
  9
$DIMSCALE
 40
1.0
  9
$DIMASZ
 40
3.302
  9
$DIMEXO
 40
0.0
  9
$DIMDLI
 40
3.75
  9
$DIMRND
 40
0.0
  9
$DIMDLE
 40
0.0
  9
$DIMEXE
 40
1.0
  9
$DIMTP
 40
0.0
  9
$DIMTM
 40
0.0
  9
$DIMTXT
 40
3.5
  9
$DIMCEN
 40
2.5
  9
$DIMTSZ
 40
0.0
  9
$DIMTOL
 70
     0
  9
$DIMLIM
 70
     0
  9
$DIMTIH
 70
     1
  9
$DIMTOH
 70
     1
  9
$DIMSE1
 70
     0
  9
$DIMSE2
 70
     0
  9
$DIMTAD
 70
     1
  9
$DIMZIN
 70
     1
  9
$DIMBLK
  1

  9
$DIMASO
 70
     1
  9
$DIMSHO
 70
     1
  9
$DIMPOST
  1

  9
$DIMAPOST
  1

  9
$DIMALT
 70
     0
  9
$DIMALTD
 70
     3
  9
$DIMALTF
 40
0.0393700787
  9
$DIMLFAC
 40
1.0
  9
$DIMTOFL
 70
     1
  9
$DIMTVP
 40
0.0
  9
$DIMTIX
 70
     0
  9
$DIMSOXD
 70
     0
  9
$DIMSAH
 70
     0
  9
$DIMBLK1
  1

  9
$DIMBLK2
  1

  9
$DIMSTYLE
  2
ISO-25
  9
$DIMCLRD
 70
     0
  9
$DIMCLRE
 70
     0
  9
$DIMCLRT
 70
     0
  9
$DIMTFAC
 40
1.0
  9
$DIMGAP
 40
1.524
  9
$DIMJUST
 70
     0
  9
$DIMSD1
 70
     0
  9
$DIMSD2
 70
     0
  9
$DIMTOLJ
 70
     0
  9
$DIMTZIN
 70
     1
  9
$DIMALTZ
 70
     0
  9
$DIMALTTZ
 70
     0
  9
$DIMUPT
 70
     0
  9
$DIMDEC
 70
     2
  9
$DIMTDEC
 70
     2
  9
$DIMALTU
 70
     2
  9
$DIMALTTD
 70
     3
  9
$DIMTXSTY
  7
Standard
  9
$DIMAUNIT
 70
     0
  9
$DIMADEC
 70
     2
  9
$DIMALTRND
 40
0.0
  9
$DIMAZIN
 70
     0
  9
$DIMDSEP
 70
    44
  9
$DIMATFIT
 70
     3
  9
$DIMFRAC
 70
     0
  9
$DIMLDRBLK
  1

  9
$DIMLUNIT
 70
     2
  9
$DIMLWD
 70
    -2
  9
$DIMLWE
 70
    -2
  9
$DIMTMOVE
 70
     0
  9
$LUNITS
 70
     2
  9
$LUPREC
 70
     2
  9
$SKETCHINC
 40
1.0
  9
$FILLETRAD
 40
10.0
  9
$AUNITS
 70
     0
  9
$AUPREC
 70
     2
  9
$MENU
  1
.
  9
$ELEVATION
 40
0.0
  9
$PELEVATION
 40
0.0
  9
$THICKNESS
 40
0.0
  9
$LIMCHECK
 70
     0
  9
$CHAMFERA
 40
0.0
  9
$CHAMFERB
 40
0.0
  9
$CHAMFERC
 40
0.0
  9
$CHAMFERD
 40
0.0
  9
$SKPOLY
 70
     0
  9
$TDCREATE
 40
2459702.685124097
  9
$TDUCREATE
 40
2459702.601790764
  9
$TDUPDATE
 40
2459702.68525728
  9
$TDUUPDATE
 40
2459702.601923947
  9
$TDINDWG
 40
0.0000000116
  9
$TDUSRTIMER
 40
0.0000000116
  9
$USRTIMER
 70
     1
  9
$ANGBASE
 50
0.0
  9
$ANGDIR
 70
     0
  9
$PDMODE
 70
     0
  9
$PDSIZE
 40
-1.0
  9
$PLINEWID
 40
0.0
  9
$SPLFRAME
 70
     0
  9
$SPLINETYPE
 70
     6
  9
$SPLINESEGS
 70
     8
  9
$HANDSEED
  5
39B
  9
$SURFTAB1
 70
     6
  9
$SURFTAB2
 70
     6
  9
$SURFTYPE
 70
     6
  9
$SURFU
 70
     6
  9
$SURFV
 70
     6
  9
$UCSBASE
  2

  9
$UCSNAME
  2

  9
$UCSORG
 10
0.0
 20
0.0
 30
0.0
  9
$UCSXDIR
 10
1.0
 20
0.0
 30
0.0
  9
$UCSYDIR
 10
0.0
 20
1.0
 30
0.0
  9
$UCSORTHOREF
  2

  9
$UCSORTHOVIEW
 70
     0
  9
$UCSORGTOP
 10
0.0
 20
0.0
 30
0.0
  9
$UCSORGBOTTOM
 10
0.0
 20
0.0
 30
0.0
  9
$UCSORGLEFT
 10
0.0
 20
0.0
 30
0.0
  9
$UCSORGRIGHT
 10
0.0
 20
0.0
 30
0.0
  9
$UCSORGFRONT
 10
0.0
 20
0.0
 30
0.0
  9
$UCSORGBACK
 10
0.0
 20
0.0
 30
0.0
  9
$PUCSBASE
  2

  9
$PUCSNAME
  2

  9
$PUCSORG
 10
0.0
 20
0.0
 30
0.0
  9
$PUCSXDIR
 10
1.0
 20
0.0
 30
0.0
  9
$PUCSYDIR
 10
0.0
 20
1.0
 30
0.0
  9
$PUCSORTHOREF
  2

  9
$PUCSORTHOVIEW
 70
     0
  9
$PUCSORGTOP
 10
0.0
 20
0.0
 30
0.0
  9
$PUCSORGBOTTOM
 10
0.0
 20
0.0
 30
0.0
  9
$PUCSORGLEFT
 10
0.0
 20
0.0
 30
0.0
  9
$PUCSORGRIGHT
 10
0.0
 20
0.0
 30
0.0
  9
$PUCSORGFRONT
 10
0.0
 20
0.0
 30
0.0
  9
$PUCSORGBACK
 10
0.0
 20
0.0
 30
0.0
  9
$USERI1
 70
     0
  9
$USERI2
 70
     0
  9
$USERI3
 70
     0
  9
$USERI4
 70
     0
  9
$USERI5
 70
     0
  9
$USERR1
 40
0.0
  9
$USERR2
 40
0.0
  9
$USERR3
 40
0.0
  9
$USERR4
 40
0.0
  9
$USERR5
 40
0.0
  9
$WORLDVIEW
 70
     1
  9
$SHADEDGE
 70
     3
  9
$SHADEDIF
 70
    70
  9
$TILEMODE
 70
     1
  9
$MAXACTVP
 70
    64
  9
$PINSBASE
 10
0.0
 20
0.0
 30
0.0
  9
$PLIMCHECK
 70
     0
  9
$PEXTMIN
 10
-239.9999475323
 20
-99.7886978291
 30
0.0
  9
$PEXTMAX
 10
60.0
 20
99.8019352583
 30
0.0
  9
$PLIMMIN
 10
-263.3462469512
 20
-108.5435601112
  9
$PLIMMAX
 10
83.3462994189
 20
136.5925837868
  9
$UNITMODE
 70
     0
  9
$VISRETAIN
 70
     1
  9
$PLINEGEN
 70
     0
  9
$PSLTSCALE
 70
     1
  9
$TREEDEPTH
 70
  3020
  9
$CMLSTYLE
  2
Standard
  9
$CMLJUST
 70
     0
  9
$CMLSCALE
 40
20.0
  9
$PROXYGRAPHICS
 70
     1
  9
$MEASUREMENT
 70
     1
  9
$CELWEIGHT
370
    -1
  9
$ENDCAPS
280
     0
  9
$JOINSTYLE
280
     0
  9
$LWDISPLAY
290
     1
  9
$INSUNITS
 70
     4
  9
$HYPERLINKBASE
  1

  9
$STYLESHEET
  1

  9
$XEDIT
290
     1
  9
$CEPSNTYPE
380
     0
  9
$PSTYLEMODE
290
     1
  9
$FINGERPRINTGUID
  2
{10bf02d0-ffa5-4bf5-aa68-94fc356193af}
  9
$VERSIONGUID
  2
{FAEB1C32-E019-11D5-929B-00C0DF256EC4}
  9
$EXTNAMES
290
     1
  9
$PSVPSCALE
 40
0.0
  9
$OLESTARTUP
290
     0
  0
ENDSEC
  0
SECTION
  2
CLASSES
  0
CLASS
  1
ACDBDICTIONARYWDFLT
  2
AcDbDictionaryWithDefault
  3
ObjectDBX Classes
 90
        0
280
     0
281
     0
  0
CLASS
  1
VISUALSTYLE
  2
AcDbVisualStyle
  3
ObjectDBX Classes
 90
     4095
280
     0
281
     0
  0
CLASS
  1
MATERIAL
  2
AcDbMaterial
  3
ObjectDBX Classes
 90
     1153
280
     0
281
     0
  0
CLASS
  1
SCALE
  2
AcDbScale
  3
ObjectDBX Classes
 90
     1153
280
     0
281
     0
  0
CLASS
  1
TABLESTYLE
  2
AcDbTableStyle
  3
ObjectDBX Classes
 90
     4095
280
     0
281
     0
  0
CLASS
  1
MLEADERSTYLE
  2
AcDbMLeaderStyle
  3
ACDB_MLEADERSTYLE_CLASS
 90
     4095
280
     0
281
     0
  0
CLASS
  1
SUN
  2
AcDbSun
  3
SCENEOE
 90
     1153
280
     0
281
     0
  0
CLASS
  1
ACDBPLACEHOLDER
  2
AcDbPlaceHolder
  3
ObjectDBX Classes
 90
        0
280
     0
281
     0
  0
CLASS
  1
LAYOUT
  2
AcDbLayout
  3
ObjectDBX Classes
 90
        0
280
     0
281
     0
  0
ENDSEC
  0
SECTION
  2
TABLES
  0
TABLE
  2
VPORT
  5
8
330
0
100
AcDbSymbolTable
 70
     1
  0
VPORT
  5
29
330
8
100
AcDbSymbolTableRecord
100
AcDbViewportTableRecord
  2
*Active
 70
     0
 10
0.0
 20
0.0
 11
1.0
 21
1.0
 12
-89.9999737662
 22
0.0066187146
 13
0.0
 23
0.0
 14
10.0
 24
10.0
 15
10.0
 25
10.0
 16
0.0
 26
0.0
 36
1.0
 17
0.0
 27
0.0
 37
0.0
 40
203.5824457491
 41
1.5030762862
 42
50.0
 43
0.0
 44
0.0
 50
0.0
 51
0.0
 71
     0
 72
   100
 73
     1
 74
     3
 75
     0
 76
     0
 77
     0
 78
     0
281
     0
 65
     1
110
0.0
120
0.0
130
0.0
111
1.0
121
0.0
131
0.0
112
0.0
122
1.0
132
0.0
 79
     0
146
0.0
  0
ENDTAB
  0
TABLE
  2
LTYPE
  5
5
330
0
100
AcDbSymbolTable
 70
     6
  0
LTYPE
  5
14
330
5
100
AcDbSymbolTableRecord
100
AcDbLinetypeTableRecord
  2
ByBlock
 70
     0
  3

 72
    65
 73
     0
 40
0.0
  0
LTYPE
  5
15
330
5
100
AcDbSymbolTableRecord
100
AcDbLinetypeTableRecord
  2
ByLayer
 70
     0
  3

 72
    65
 73
     0
 40
0.0
  0
LTYPE
  5
16
330
5
100
AcDbSymbolTableRecord
100
AcDbLinetypeTableRecord
  2
Continuous
 70
     0
  3
Solid line
 72
    65
 73
     0
 40
0.0
  0
LTYPE
  5
6E
330
5
100
AcDbSymbolTableRecord
100
AcDbLinetypeTableRecord
  2
HIDDEN
 70
     0
  3
Hidden __ __ __ __ __ __ __ __ __ __ __ __ __ __
 72
    65
 73
     2
 40
1.905
 49
1.27
 74
     0
 49
-0.635
 74
     0
  0
LTYPE
  5
6F
330
5
100
AcDbSymbolTableRecord
100
AcDbLinetypeTableRecord
  2
PHANTOM
 70
     0
  3
Phantom ______  __  __  ______  __  __  ______
 72
    65
 73
     6
 40
12.7
 49
6.35
 74
     0
 49
-1.27
 74
     0
 49
1.27
 74
     0
 49
-1.27
 74
     0
 49
1.27
 74
     0
 49
-1.27
 74
     0
  0
LTYPE
  5
70
330
5
100
AcDbSymbolTableRecord
100
AcDbLinetypeTableRecord
  2
CENTER
 70
     0
  3
Center ____ _ ____ _ ____ _ ____ _ ____ _ ____
 72
    65
 73
     4
 40
10.16
 49
6.35
 74
     0
 49
-1.27
 74
     0
 49
1.27
 74
     0
 49
-1.27
 74
     0
  0
LTYPE
  5
71
330
5
100
AcDbSymbolTableRecord
100
AcDbLinetypeTableRecord
  2
CENTERX2
 70
     0
  3
Center (2x) ________  __  ________  __  _____
 72
    65
 73
     4
 40
20.32
 49
12.7
 74
     0
 49
-2.54
 74
     0
 49
2.54
 74
     0
 49
-2.54
 74
     0
  0
LTYPE
  5
72
330
5
100
AcDbSymbolTableRecord
100
AcDbLinetypeTableRecord
  2
DOT2
 70
     0
  3
Dot (.5x) ........................................
 72
    65
 73
     2
 40
0.635
 49
0.0
 74
     0
 49
-0.635
 74
     0
  0
ENDTAB
  0
TABLE
  2
LAYER
  5
2
330
0
100
AcDbSymbolTable
 70
     1
  0
LAYER
  5
10
330
2
100
AcDbSymbolTableRecord
100
AcDbLayerTableRecord
  2
0
 70
     0
 62
     7
  6
Continuous
370
    -3
390
F
  0
ENDTAB
  0
TABLE
  2
STYLE
  5
3
330
0
100
AcDbSymbolTable
 70
     2
  0
STYLE
  5
11
330
3
100
AcDbSymbolTableRecord
100
AcDbTextStyleTableRecord
  2
Standard
 70
     0
 40
0.0
 41
1.0
 50
0.0
 71
     0
 42
3.5
  3
txt
  4

  0
STYLE
  5
385
330
3
100
AcDbSymbolTableRecord
100
AcDbTextStyleTableRecord
  2
SLDTEXTSTYLE0
 70
     0
 40
0.0
 41
0.7
 50
0.0
 71
     0
 42
3.5
  3
TXT
  4

  0
ENDTAB
  0
TABLE
  2
VIEW
  5
6
330
0
100
AcDbSymbolTable
 70
     0
  0
ENDTAB
  0
TABLE
  2
UCS
  5
7
330
0
100
AcDbSymbolTable
 70
     0
  0
ENDTAB
  0
TABLE
  2
APPID
  5
9
330
0
100
AcDbSymbolTable
 70
     1
  0
APPID
  5
12
330
9
100
AcDbSymbolTableRecord
100
AcDbRegAppTableRecord
  2
ACAD
 70
     0
  0
ENDTAB
  0
TABLE
  2
DIMSTYLE
  5
A
330
0
100
AcDbSymbolTable
 70
     1
100
AcDbDimStyleTable
  0
DIMSTYLE
105
27
330
A
100
AcDbSymbolTableRecord
100
AcDbDimStyleTableRecord
  2
ISO-25
 70
     0
 41
2.5
 42
0.625
 43
3.75
 44
1.25
 73
     0
 74
     0
 77
     1
 78
     8
140
2.5
141
2.5
143
0.0393700787
147
0.625
171
     3
172
     1
178
     0
271
     2
272
     2
274
     3
278
    44
283
     0
284
     8
340
11
  0
ENDTAB
  0
TABLE
  2
BLOCK_RECORD
  5
1
330
0
100
AcDbSymbolTable
 70
     8
  0
BLOCK_RECORD
  5
1F
330
1
100
AcDbSymbolTableRecord
100
AcDbBlockTableRecord
  2
*Model_Space
340
22
  0
BLOCK_RECORD
  5
1B
330
1
100
AcDbSymbolTableRecord
100
AcDbBlockTableRecord
  2
*Paper_Space
340
1E
  0
BLOCK_RECORD
  5
23
330
1
100
AcDbSymbolTableRecord
100
AcDbBlockTableRecord
  2
*Paper_Space0
340
26
  0
BLOCK_RECORD
  5
119
330
1
100
AcDbSymbolTableRecord
100
AcDbBlockTableRecord
  2
*Paper_Space1
340
11A
  0
BLOCK_RECORD
  5
143
330
1
100
AcDbSymbolTableRecord
100
AcDbBlockTableRecord
  2
*Paper_Space2
340
144
  0
BLOCK_RECORD
  5
19B
330
1
100
AcDbSymbolTableRecord
100
AcDbBlockTableRecord
  2
*Paper_Space3
340
19C
  0
BLOCK_RECORD
  5
1B1
330
1
100
AcDbSymbolTableRecord
100
AcDbBlockTableRecord
  2
*Paper_Space4
340
1B2
  0
BLOCK_RECORD
  5
1CD
330
1
100
AcDbSymbolTableRecord
100
AcDbBlockTableRecord
  2
*Paper_Space5
340
1CE
  0
BLOCK_RECORD
  5
25A
330
1
100
AcDbSymbolTableRecord
100
AcDbBlockTableRecord
  2
*Paper_Space6
340
25B
  0
BLOCK_RECORD
  5
2E3
330
1
100
AcDbSymbolTableRecord
100
AcDbBlockTableRecord
  2
*Paper_Space7
340
2E4
  0
ENDTAB
  0
ENDSEC
  0
SECTION
  2
BLOCKS
  0
BLOCK
  5
20
330
1F
100
AcDbEntity
  8
0
100
AcDbBlockBegin
  2
*Model_Space
 70
     0
 10
0.0
 20
0.0
 30
0.0
  3
*Model_Space
  1

  0
ENDBLK
  5
21
330
1F
100
AcDbEntity
  8
0
100
AcDbBlockEnd
  0
BLOCK
  5
1C
330
1B
100
AcDbEntity
 67
     1
  8
0
100
AcDbBlockBegin
  2
*Paper_Space
 70
     0
 10
0.0
 20
0.0
 30
0.0
  3
*Paper_Space
  1

  0
ENDBLK
  5
1D
330
1B
100
AcDbEntity
 67
     1
  8
0
100
AcDbBlockEnd
  0
BLOCK
  5
24
330
23
100
AcDbEntity
  8
0
100
AcDbBlockBegin
  2
*Paper_Space0
 70
     0
 10
0.0
 20
0.0
 30
0.0
  3
*Paper_Space0
  1

  0
LINE
  5
110
330
23
100
AcDbEntity
  8
0
  6
Continuous
 62
     7
370
    25
100
AcDbLine
 10
-55.8500576851
 20
0.01
 30
0.0
 11
-55.8500576851
 21
-10.0
 31
0.0
  0
LINE
  5
111
330
23
100
AcDbEntity
  8
0
  6
Continuous
 62
     7
370
    25
100
AcDbLine
 10
60.0
 20
-10.0
 30
0.0
 11
-239.9999475323
 21
-10.0
 31
0.0
  0
LINE
  5
112
330
23
100
AcDbEntity
  8
0
  6
Continuous
 62
     7
370
    25
100
AcDbLine
 10
-239.9999475323
 20
0.01
 30
0.0
 11
-239.9999475323
 21
-10.0
 31
0.0
  0
LINE
  5
113
330
23
100
AcDbEntity
  8
0
  6
Continuous
 62
     7
370
    25
100
AcDbLine
 10
60.0
 20
0.01
 30
0.0
 11
-239.9999475323
 21
0.01
 31
0.0
  0
LINE
  5
114
330
23
100
AcDbEntity
  8
0
  6
Continuous
 62
     7
370
    25
100
AcDbLine
 10
33.1299423149
 20
0.01
 30
0.0
 11
33.1299423149
 21
-10.0
 31
0.0
  0
LINE
  5
115
330
23
100
AcDbEntity
  8
0
  6
Continuous
 62
     7
370
    25
100
AcDbLine
 10
60.0
 20
0.01
 30
0.0
 11
60.0
 21
-10.0
 31
0.0
  0
LINE
  5
116
330
23
100
AcDbEntity
  8
0
  6
Continuous
 62
     7
370
    25
100
AcDbLine
 10
14.22661748
 20
-10.0076416969
 30
0.0
 11
18.97951769
 21
-10.0076416969
 31
0.0
  0
LINE
  5
117
330
23
100
AcDbEntity
  8
0
  6
Continuous
 62
     7
370
    25
100
AcDbLine
 10
14.22661748
 20
-10.0
 30
0.0
 11
14.22661748
 21
-10.0076416969
 31
0.0
  0
LINE
  5
118
330
23
100
AcDbEntity
  8
0
  6
Continuous
 62
     7
370
    25
100
AcDbLine
 10
18.97951769
 20
-10.0076416969
 30
0.0
 11
18.97951769
 21
-10.0
 31
0.0
  0
VIEWPORT
  5
375
330
23
100
AcDbEntity
  8
0
100
AcDbViewport
 10
0.0
 20
0.0
 30
0.0
 40
205.6
 41
156.0
 68
     1
 69
     1
 12
-89.9999737662
 22
0.0066187146
 13
0.0
 23
0.0
 14
10.0
 24
10.0
 15
10.0
 25
10.0
 16
0.0
 26
0.0
 36
1.0
 17
0.0
 27
0.0
 37
0.0
 42
50.0
 43
0.0
 44
0.0
 45
232.1789477205
 50
0.0
 51
0.0
 72
   100
 90
   557152
  1

281
     0
 71
     1
 74
     0
110
0.0
120
0.0
130
0.0
111
1.0
121
0.0
131
0.0
112
0.0
122
1.0
132
0.0
 79
     0
146
0.0
  0
MTEXT
  5
38A
330
23
100
AcDbEntity
  8
0
  6
Continuous
 62
     7
100
AcDbMText
 10
-239.9999475323
 20
-11.0272080886
 30
0.0
 40
4.83362
 41
0.0
 71
     1
 72
     1
  1
SOLIDWORKS Educational Product.
  7
SLDTEXTSTYLE0
 73
     1
 44
1.0
  0
MTEXT
  5
38B
330
23
100
AcDbEntity
  8
0
  6
Continuous
 62
     7
100
AcDbMText
 10
-239.9999475323
 20
-18.2776380886
 30
0.0
 40
4.83362
 41
0.0
 71
     1
 72
     1
  1
For Instructional Use Only.
  7
SLDTEXTSTYLE0
 73
     1
 44
1.0
  0
ENDBLK
  5
25
330
23
100
AcDbEntity
  8
0
100
AcDbBlockEnd
  0
BLOCK
  5
11B
330
119
100
AcDbEntity
  8
0
100
AcDbBlockBegin
  2
*Paper_Space1
 70
     0
 10
0.0
 20
0.0
 30
0.0
  3
*Paper_Space1
  1

  0
LINE
  5
136
330
119
100
AcDbEntity
  8
0
  6
Continuous
 62
     7
370
    25
100
AcDbLine
 10
0.01
 20
99.8019352583
 30
0.0
 11
-10.0
 21
99.8019352583
 31
0.0
  0
LINE
  5
137
330
119
100
AcDbEntity
  8
0
  6
Continuous
 62
     7
370
    25
100
AcDbLine
 10
-10.0
 20
-99.7886978291
 30
0.0
 11
0.01
 21
-99.7886978291
 31
0.0
  0
LINE
  5
138
330
119
100
AcDbEntity
  8
0
  6
Continuous
 62
     7
370
    25
100
AcDbLine
 10
0.01
 20
-78.8700576851
 30
0.0
 11
-10.0076416969
 21
-78.8700576851
 31
0.0
  0
LINE
  5
139
330
119
100
AcDbEntity
  8
0
  6
Continuous
 62
     7
370
    25
100
AcDbLine
 10
-10.0
 20
-99.7886978291
 30
0.0
 11
-10.0
 21
-37.0
 31
0.0
  0
LINE
  5
13A
330
119
100
AcDbEntity
  8
0
  6
Continuous
 62
     7
370
    25
100
AcDbLine
 10
0.01
 20
-52.0
 30
0.0
 11
-10.0
 21
-52.0
 31
0.0
  0
LINE
  5
13B
330
119
100
AcDbEntity
  8
0
  6
Continuous
 62
     7
370
    25
100
AcDbLine
 10
0.01
 20
-37.0
 30
0.0
 11
-10.0
 21
-37.0
 31
0.0
  0
LINE
  5
13C
330
119
100
AcDbEntity
  8
0
  6
Continuous
 62
     7
370
    25
100
AcDbLine
 10
-10.0
 20
37.0
 30
0.0
 11
-10.0
 21
99.8019352583
 31
0.0
  0
LINE
  5
13D
330
119
100
AcDbEntity
  8
0
  6
Continuous
 62
     7
370
    25
100
AcDbLine
 10
0.01
 20
52.0
 30
0.0
 11
-10.0
 21
52.0
 31
0.0
  0
LINE
  5
13E
330
119
100
AcDbEntity
  8
0
  6
Continuous
 62
     7
370
    25
100
AcDbLine
 10
0.01
 20
-99.7886978291
 30
0.0
 11
0.01
 21
99.8019352583
 31
0.0
  0
LINE
  5
13F
330
119
100
AcDbEntity
  8
0
  6
Continuous
 62
     7
370
    25
100
AcDbLine
 10
0.01
 20
37.0
 30
0.0
 11
-10.0076416969
 21
37.0
 31
0.0
  0
LINE
  5
140
330
119
100
AcDbEntity
  8
0
  6
Continuous
 62
     7
370
    25
100
AcDbLine
 10
0.01
 20
78.8700576851
 30
0.0
 11
-10.0
 21
78.8700576851
 31
0.0
  0
LINE
  5
141
330
119
100
AcDbEntity
  8
0
  6
Continuous
 62
     7
370
    25
100
AcDbLine
 10
-10.0076416969
 20
37.0
 30
0.0
 11
-10.0076416969
 21
-78.8700576851
 31
0.0
  0
LINE
  5
142
330
119
100
AcDbEntity
  8
0
  6
Continuous
 62
     7
370
    25
100
AcDbLine
 10
-0.0597979497
 20
37.0
 30
0.0
 11
-0.0597979497
 21
-37.0
 31
0.0
  0
VIEWPORT
  5
377
330
119
100
AcDbEntity
  8
0
100
AcDbViewport
 10
0.0
 20
0.0
 30
0.0
 40
205.6
 41
156.0
 68
     1
 69
     1
 12
-89.9999737662
 22
0.0066187146
 13
0.0
 23
0.0
 14
10.0
 24
10.0
 15
10.0
 25
10.0
 16
0.0
 26
0.0
 36
1.0
 17
0.0
 27
0.0
 37
0.0
 42
50.0
 43
0.0
 44
0.0
 45
232.1789477205
 50
0.0
 51
0.0
 72
   100
 90
   557152
  1

281
     0
 71
     1
 74
     0
110
0.0
120
0.0
130
0.0
111
1.0
121
0.0
131
0.0
112
0.0
122
1.0
132
0.0
 79
     0
146
0.0
  0
MTEXT
  5
38C
330
119
100
AcDbEntity
  8
0
  6
Continuous
 62
     7
100
AcDbMText
 10
-10.0076416969
 20
-100.8082642208
 30
0.0
 40
4.83362
 41
0.0
 71
     1
 72
     1
  1
SOLIDWORKS Educational Product.
  7
SLDTEXTSTYLE0
 73
     1
 44
1.0
  0
MTEXT
  5
38D
330
119
100
AcDbEntity
  8
0
  6
Continuous
 62
     7
100
AcDbMText
 10
-10.0076416969
 20
-108.0586942208
 30
0.0
 40
4.83362
 41
0.0
 71
     1
 72
     1
  1
For Instructional Use Only.
  7
SLDTEXTSTYLE0
 73
     1
 44
1.0
  0
ENDBLK
  5
11C
330
119
100
AcDbEntity
  8
0
100
AcDbBlockEnd
  0
BLOCK
  5
145
330
143
100
AcDbEntity
  8
0
100
AcDbBlockBegin
  2
*Paper_Space2
 70
     0
 10
0.0
 20
0.0
 30
0.0
  3
*Paper_Space2
  1

  0
CIRCLE
  5
16C
330
143
100
AcDbEntity
  8
0
  6
Continuous
 62
     7
370
    25
100
AcDbCircle
 10
-7.2775288448
 20
53.3707895193
 30
0.0
 40
1.55000000000001
  0
CIRCLE
  5
16D
330
143
100
AcDbEntity
  8
0
  6
Continuous
 62
     7
370
    25
100
AcDbCircle
 10
-7.2612301592
 20
49.3708227253
 30
0.0
 40
1.550000000000007
  0
CIRCLE
  5
16E
330
143
100
AcDbEntity
  8
0
  6
Continuous
 62
     7
370
    25
100
AcDbCircle
 10
-7.2449314735
 20
45.3708559314
 30
0.0
 40
1.550000000000007
  0
CIRCLE
  5
16F
330
143
100
AcDbEntity
  8
0
  6
Continuous
 62
     7
370
    25
100
AcDbCircle
 10
-7.2286327879
 20
41.3708891374
 30
0.0
 40
1.549999999999997
  0
CIRCLE
  5
172
330
143
100
AcDbEntity
  8
0
  6
Continuous
 62
     7
370
    25
100
AcDbCircle
 10
-7.06
 20
-49.4
 30
0.0
 40
1.55000000000001
  0
CIRCLE
  5
173
330
143
100
AcDbEntity
  8
0
  6
Continuous
 62
     7
370
    25
100
AcDbCircle
 10
-7.06
 20
-45.4
 30
0.0
 40
1.549999999999995
  0
CIRCLE
  5
174
330
143
100
AcDbEntity
  8
0
  6
Continuous
 62
     7
370
    25
100
AcDbCircle
 10
-7.06
 20
-41.4
 30
0.0
 40
1.550000000000005
  0
CIRCLE
  5
175
330
143
100
AcDbEntity
  8
0
  6
Continuous
 62
     7
370
    25
100
AcDbCircle
 10
-7.06
 20
-53.4
 30
0.0
 40
1.55000000000001
  0
LINE
  5
177
330
143
100
AcDbEntity
  8
0
  6
Continuous
 62
     7
370
    25
100
AcDbLine
 10
44.41309413
 20
9.05616102
 30
0.0
 11
213.41309413
 21
9.05616102
 31
0.0
  0
LINE
  5
178
330
143
100
AcDbEntity
  8
0
  6
Continuous
 62
     7
370
    25
100
AcDbLine
 10
44.41309413
 20
-48.94383898
 30
0.0
 11
44.41309413
 21
9.05616102
 31
0.0
  0
LINE
  5
179
330
143
100
AcDbEntity
  8
0
  6
Continuous
 62
     7
370
    25
100
AcDbLine
 10
213.41309413
 20
-48.94383898
 30
0.0
 11
44.41309413
 21
-48.94383898
 31
0.0
  0
LINE
  5
17A
330
143
100
AcDbEntity
  8
0
  6
Continuous
 62
     7
370
    25
100
AcDbLine
 10
213.41309413
 20
9.05616102
 30
0.0
 11
213.41309413
 21
-48.94383898
 31
0.0
  0
LINE
  5
17B
330
143
100
AcDbEntity
  8
0
  6
Continuous
 62
     7
370
    25
100
AcDbLine
 10
56.72454895
 20
69.0
 30
0.0
 11
104.12454895
 21
69.0
 31
0.0
  0
LINE
  5
17C
330
143
100
AcDbEntity
  8
0
  6
Continuous
 62
     7
370
    25
100
AcDbLine
 10
56.72454895
 20
21.6
 30
0.0
 11
56.72454895
 21
69.0
 31
0.0
  0
LINE
  5
17D
330
143
100
AcDbEntity
  8
0
  6
Continuous
 62
     7
370
    25
100
AcDbLine
 10
104.12454895
 20
21.6
 30
0.0
 11
56.72454895
 21
21.6
 31
0.0
  0
LINE
  5
17E
330
143
100
AcDbEntity
  8
0
  6
Continuous
 62
     7
370
    25
100
AcDbLine
 10
104.12454895
 20
69.0
 30
0.0
 11
104.12454895
 21
21.6
 31
0.0
  0
LINE
  5
17F
330
143
100
AcDbEntity
  8
0
  6
Continuous
 62
     7
370
    25
100
AcDbLine
 10
0.0
 20
37.0
 30
0.0
 11
-14.22661748
 21
37.0
 31
0.0
  0
LINE
  5
180
330
143
100
AcDbEntity
  8
0
  6
Continuous
 62
     7
370
    25
100
AcDbLine
 10
-0.1556854313
 20
37.0
 30
0.0
 11
-0.260849829
 21
61.9948051376
 31
0.0
  0
LINE
  5
181
330
143
100
AcDbEntity
  8
0
  6
Continuous
 62
     7
370
    25
100
AcDbLine
 10
-0.260849829
 20
61.9948051376
 30
0.0
 11
-14.38072485
 21
61.9353964667
 31
0.0
  0
LINE
  5
182
330
143
100
AcDbEntity
  8
0
  6
Continuous
 62
     7
370
    25
100
AcDbLine
 10
-14.38072485
 20
61.9353964667
 30
0.0
 11
-14.2755395262
 21
36.9356177467
 31
0.0
  0
LINE
  5
183
330
143
100
AcDbEntity
  8
0
  6
Continuous
 62
     7
370
    25
100
AcDbLine
 10
-60.0
 20
37.0
 30
0.0
 11
-60.0
 21
52.0
 31
0.0
  0
LINE
  5
184
330
143
100
AcDbEntity
  8
0
  6
Continuous
 62
     7
370
    25
100
AcDbLine
 10
-60.0
 20
52.0
 30
0.0
 11
-33.1299423149
 21
78.8700576851
 31
0.0
  0
LINE
  5
185
330
143
100
AcDbEntity
  8
0
  6
Continuous
 62
     7
370
    25
100
AcDbLine
 10
-33.1299423149
 20
78.8700576851
 30
0.0
 11
55.8500576851
 21
78.8700576851
 31
0.0
  0
LINE
  5
186
330
143
100
AcDbEntity
  8
0
  6
Continuous
 62
     7
370
    25
100
AcDbLine
 10
55.8500576851
 20
-78.8700576851
 30
0.0
 11
-33.1299423149
 21
-78.8700576851
 31
0.0
  0
LINE
  5
187
330
143
100
AcDbEntity
  8
0
  6
Continuous
 62
     7
370
    25
100
AcDbLine
 10
-33.1299423149
 20
-78.8700576851
 30
0.0
 11
-60.0
 21
-52.0
 31
0.0
  0
LINE
  5
188
330
143
100
AcDbEntity
  8
0
  6
Continuous
 62
     7
370
    25
100
AcDbLine
 10
-60.0
 20
-52.0
 30
0.0
 11
-60.0
 21
-37.0
 31
0.0
  0
LINE
  5
189
330
143
100
AcDbEntity
  8
0
  6
Continuous
 62
     7
370
    25
100
AcDbLine
 10
-60.0
 20
-37.0
 30
0.0
 11
0.0
 21
-37.0
 31
0.0
  0
LINE
  5
18A
330
143
100
AcDbEntity
  8
0
  6
Continuous
 62
     7
370
    25
100
AcDbLine
 10
-14.12
 20
-37.0
 30
0.0
 11
-14.12
 21
-62.0
 31
0.0
  0
LINE
  5
18B
330
143
100
AcDbEntity
  8
0
  6
Continuous
 62
     7
370
    25
100
AcDbLine
 10
-14.12
 20
-62.0
 30
0.0
 11
0.0
 21
-62.0
 31
0.0
  0
LINE
  5
18C
330
143
100
AcDbEntity
  8
0
  6
Continuous
 62
     7
370
    25
100
AcDbLine
 10
0.0
 20
-62.0
 30
0.0
 11
0.0
 21
37.0
 31
0.0
  0
LINE
  5
18D
330
143
100
AcDbEntity
  8
0
  6
Continuous
 62
     7
370
    25
100
AcDbLine
 10
11.3033055024
 20
-15.0709740661
 30
0.0
 11
29.3033055024
 21
-15.0709740661
 31
0.0
  0
LINE
  5
18E
330
143
100
AcDbEntity
  8
0
  6
Continuous
 62
     7
370
    25
100
AcDbLine
 10
29.3033055024
 20
-15.0709740661
 30
0.0
 11
29.3033055024
 21
-12.5609740661
 31
0.0
  0
LINE
  5
18F
330
143
100
AcDbEntity
  8
0
  6
Continuous
 62
     7
370
    25
100
AcDbLine
 10
29.3033055024
 20
-12.5609740661
 30
0.0
 11
11.3033055024
 21
-12.5609740661
 31
0.0
  0
LINE
  5
190
330
143
100
AcDbEntity
  8
0
  6
Continuous
 62
     7
370
    25
100
AcDbLine
 10
11.3033055024
 20
-12.5609740661
 30
0.0
 11
11.3033055024
 21
-15.0709740661
 31
0.0
  0
LINE
  5
191
330
143
100
AcDbEntity
  8
0
  6
Continuous
 62
     7
370
    25
100
AcDbLine
 10
29.2306664397
 20
16.5650073789
 30
0.0
 11
29.2181468332
 21
19.0749761555
 31
0.0
  0
LINE
  5
192
330
143
100
AcDbEntity
  8
0
  6
Continuous
 62
     7
370
    25
100
AcDbLine
 10
29.2181468332
 20
19.0749761555
 30
0.0
 11
11.2183707461
 21
18.9851941168
 31
0.0
  0
LINE
  5
193
330
143
100
AcDbEntity
  8
0
  6
Continuous
 62
     7
370
    25
100
AcDbLine
 10
11.2183707461
 20
18.9851941168
 30
0.0
 11
11.2308903526
 21
16.4752253402
 31
0.0
  0
LINE
  5
194
330
143
100
AcDbEntity
  8
0
  6
Continuous
 62
     7
370
    25
100
AcDbLine
 10
11.2308903526
 20
16.4752253402
 30
0.0
 11
29.2306664397
 21
16.5650073789
 31
0.0
  0
LINE
  5
195
330
143
100
AcDbEntity
  8
0
  6
Continuous
 62
     7
370
    25
100
AcDbLine
 10
-14.2758104114
 20
37.0
 30
0.0
 11
-60.0
 21
37.0
 31
0.0
  0
LINE
  5
196
330
143
100
AcDbEntity
  8
0
  6
Continuous
 62
     7
370
    25
100
AcDbLine
 10
-14.22661748
 20
37.0
 30
0.0
 11
-14.22661748
 21
-37.0
 31
0.0
  0
LINE
  5
197
330
143
100
AcDbEntity
  8
0
  6
Continuous
 62
     7
370
    25
100
AcDbLine
 10
-18.97951769
 20
37.0
 30
0.0
 11
-18.97951769
 21
-37.0
 31
0.0
  0
LINE
  5
198
330
143
100
AcDbEntity
  8
0
  6
Continuous
 62
     7
370
    25
100
AcDbLine
 10
-14.2755395262
 20
36.9356177467
 30
0.0
 11
-14.22661748
 21
36.9358235838
 31
0.0
  0
ARC
  5
199
330
143
100
AcDbEntity
  8
0
  6
Continuous
 62
     7
370
    25
100
AcDbCircle
 10
123.0632457623
 20
-18.5762688209
 30
0.0
 40
118.378204079178
100
AcDbArc
 50
8.950578767
 51
124.5958049089
  0
ARC
  5
19A
330
143
100
AcDbEntity
  8
0
  6
Continuous
 62
     7
370
    25
100
AcDbCircle
 10
123.0632457623
 20
18.6511750037
 30
0.0
 40
118.4398728327512
100
AcDbArc
 50
235.4247693937
 51
350.8619557254
  0
VIEWPORT
  5
379
330
143
100
AcDbEntity
  8
0
100
AcDbViewport
 10
0.0
 20
0.0
 30
0.0
 40
205.6
 41
156.0
 68
     1
 69
     1
 12
-89.9999737662
 22
0.0066187146
 13
0.0
 23
0.0
 14
10.0
 24
10.0
 15
10.0
 25
10.0
 16
0.0
 26
0.0
 36
1.0
 17
0.0
 27
0.0
 37
0.0
 42
50.0
 43
0.0
 44
0.0
 45
232.1789477205
 50
0.0
 51
0.0
 72
   100
 90
   557152
  1

281
     0
 71
     1
 74
     0
110
0.0
120
0.0
130
0.0
111
1.0
121
0.0
131
0.0
112
0.0
122
1.0
132
0.0
 79
     0
146
0.0
  0
MTEXT
  5
38E
330
143
100
AcDbEntity
  8
0
  6
Continuous
 62
     7
100
AcDbMText
 10
-60.0
 20
-100.8082642208
 30
0.0
 40
4.83362
 41
0.0
 71
     1
 72
     1
  1
SOLIDWORKS Educational Product.
  7
SLDTEXTSTYLE0
 73
     1
 44
1.0
  0
MTEXT
  5
38F
330
143
100
AcDbEntity
  8
0
  6
Continuous
 62
     7
100
AcDbMText
 10
-60.0
 20
-108.0586942208
 30
0.0
 40
4.83362
 41
0.0
 71
     1
 72
     1
  1
For Instructional Use Only.
  7
SLDTEXTSTYLE0
 73
     1
 44
1.0
  0
ENDBLK
  5
146
330
143
100
AcDbEntity
  8
0
100
AcDbBlockEnd
  0
BLOCK
  5
19D
330
19B
100
AcDbEntity
  8
0
100
AcDbBlockBegin
  2
*Paper_Space3
 70
     0
 10
0.0
 20
0.0
 30
0.0
  3
*Paper_Space3
  1

  0
LINE
  5
1A9
330
19B
100
AcDbEntity
  8
0
  6
Continuous
 62
     7
370
    25
100
AcDbLine
 10
-0.01
 20
-99.7886978291
 30
0.0
 11
10.0
 21
-99.7886978291
 31
0.0
  0
LINE
  5
1AA
330
19B
100
AcDbEntity
  8
0
  6
Continuous
 62
     7
370
    25
100
AcDbLine
 10
10.0
 20
99.8019352583
 30
0.0
 11
-0.01
 21
99.8019352583
 31
0.0
  0
LINE
  5
1AB
330
19B
100
AcDbEntity
  8
0
  6
Continuous
 62
     7
370
    25
100
AcDbLine
 10
-0.01
 20
-0.1586962292
 30
0.0
 11
10.0
 21
-0.1586962292
 31
0.0
  0
LINE
  5
1AC
330
19B
100
AcDbEntity
  8
0
  6
Continuous
 62
     7
370
    25
100
AcDbLine
 10
10.0
 20
99.8019352583
 30
0.0
 11
10.0
 21
-99.7886978291
 31
0.0
  0
LINE
  5
1AD
330
19B
100
AcDbEntity
  8
0
  6
Continuous
 62
     7
370
    25
100
AcDbLine
 10
-0.01
 20
99.8019352583
 30
0.0
 11
-0.01
 21
-99.7886978291
 31
0.0
  0
LINE
  5
1AE
330
19B
100
AcDbEntity
  8
0
  6
Continuous
 62
     7
370
    25
100
AcDbLine
 10
10.0
 20
37.0
 30
0.0
 11
10.0076416969
 21
37.0
 31
0.0
  0
LINE
  5
1AF
330
19B
100
AcDbEntity
  8
0
  6
Continuous
 62
     7
370
    25
100
AcDbLine
 10
10.0076416969
 20
37.0
 30
0.0
 11
10.0076416969
 21
-78.8700576851
 31
0.0
  0
LINE
  5
1B0
330
19B
100
AcDbEntity
  8
0
  6
Continuous
 62
     7
370
    25
100
AcDbLine
 10
10.0076416969
 20
-78.8700576851
 30
0.0
 11
10.0
 21
-78.8700576851
 31
0.0
  0
VIEWPORT
  5
37B
330
19B
100
AcDbEntity
  8
0
100
AcDbViewport
 10
0.0
 20
0.0
 30
0.0
 40
205.6
 41
156.0
 68
     1
 69
     1
 12
-89.9999737662
 22
0.0066187146
 13
0.0
 23
0.0
 14
10.0
 24
10.0
 15
10.0
 25
10.0
 16
0.0
 26
0.0
 36
1.0
 17
0.0
 27
0.0
 37
0.0
 42
50.0
 43
0.0
 44
0.0
 45
232.1789477205
 50
0.0
 51
0.0
 72
   100
 90
   557152
  1

281
     0
 71
     1
 74
     0
110
0.0
120
0.0
130
0.0
111
1.0
121
0.0
131
0.0
112
0.0
122
1.0
132
0.0
 79
     0
146
0.0
  0
MTEXT
  5
390
330
19B
100
AcDbEntity
  8
0
  6
Continuous
 62
     7
100
AcDbMText
 10
-0.01
 20
-100.8082642208
 30
0.0
 40
4.83362
 41
0.0
 71
     1
 72
     1
  1
SOLIDWORKS Educational Product.
  7
SLDTEXTSTYLE0
 73
     1
 44
1.0
  0
MTEXT
  5
391
330
19B
100
AcDbEntity
  8
0
  6
Continuous
 62
     7
100
AcDbMText
 10
-0.01
 20
-108.0586942208
 30
0.0
 40
4.83362
 41
0.0
 71
     1
 72
     1
  1
For Instructional Use Only.
  7
SLDTEXTSTYLE0
 73
     1
 44
1.0
  0
ENDBLK
  5
19E
330
19B
100
AcDbEntity
  8
0
100
AcDbBlockEnd
  0
BLOCK
  5
1B3
330
1B1
100
AcDbEntity
  8
0
100
AcDbBlockBegin
  2
*Paper_Space4
 70
     0
 10
0.0
 20
0.0
 30
0.0
  3
*Paper_Space4
  1

  0
LINE
  5
1C3
330
1B1
100
AcDbEntity
  8
0
  6
Continuous
 62
     7
370
    25
100
AcDbLine
 10
-239.9999475323
 20
-0.01
 30
0.0
 11
-239.9999475323
 21
10.0
 31
0.0
  0
LINE
  5
1C4
330
1B1
100
AcDbEntity
  8
0
  6
Continuous
 62
     7
370
    25
100
AcDbLine
 10
-239.9999475323
 20
10.0
 30
0.0
 11
14.22661748
 21
10.0
 31
0.0
  0
LINE
  5
1C5
330
1B1
100
AcDbEntity
  8
0
  6
Continuous
 62
     7
370
    25
100
AcDbLine
 10
-55.8500576851
 20
-0.01
 30
0.0
 11
-55.8500576851
 21
10.0
 31
0.0
  0
LINE
  5
1C6
330
1B1
100
AcDbEntity
  8
0
  6
Continuous
 62
     7
370
    25
100
AcDbLine
 10
33.1299423149
 20
-0.01
 30
0.0
 11
33.1299423149
 21
10.0
 31
0.0
  0
LINE
  5
1C7
330
1B1
100
AcDbEntity
  8
0
  6
Continuous
 62
     7
370
    25
100
AcDbLine
 10
18.97951769
 20
10.0
 30
0.0
 11
60.0
 21
10.0
 31
0.0
  0
LINE
  5
1C8
330
1B1
100
AcDbEntity
  8
0
  6
Continuous
 62
     7
370
    25
100
AcDbLine
 10
60.0
 20
-0.01
 30
0.0
 11
60.0
 21
10.0
 31
0.0
  0
LINE
  5
1C9
330
1B1
100
AcDbEntity
  8
0
  6
Continuous
 62
     7
370
    25
100
AcDbLine
 10
-239.9999475323
 20
-0.01
 30
0.0
 11
60.0
 21
-0.01
 31
0.0
  0
LINE
  5
1CA
330
1B1
100
AcDbEntity
  8
0
  6
Continuous
 62
     7
370
    25
100
AcDbLine
 10
14.22661748
 20
10.0076416969
 30
0.0
 11
14.22661748
 21
10.0
 31
0.0
  0
LINE
  5
1CB
330
1B1
100
AcDbEntity
  8
0
  6
Continuous
 62
     7
370
    25
100
AcDbLine
 10
18.97951769
 20
10.0076416969
 30
0.0
 11
14.22661748
 21
10.0076416969
 31
0.0
  0
LINE
  5
1CC
330
1B1
100
AcDbEntity
  8
0
  6
Continuous
 62
     7
370
    25
100
AcDbLine
 10
18.97951769
 20
10.0
 30
0.0
 11
18.97951769
 21
10.0076416969
 31
0.0
  0
VIEWPORT
  5
37D
330
1B1
100
AcDbEntity
  8
0
100
AcDbViewport
 10
0.0
 20
0.0
 30
0.0
 40
205.6
 41
156.0
 68
     1
 69
     1
 12
-89.9999737662
 22
0.0066187146
 13
0.0
 23
0.0
 14
10.0
 24
10.0
 15
10.0
 25
10.0
 16
0.0
 26
0.0
 36
1.0
 17
0.0
 27
0.0
 37
0.0
 42
50.0
 43
0.0
 44
0.0
 45
232.1789477205
 50
0.0
 51
0.0
 72
   100
 90
   557152
  1

281
     0
 71
     1
 74
     0
110
0.0
120
0.0
130
0.0
111
1.0
121
0.0
131
0.0
112
0.0
122
1.0
132
0.0
 79
     0
146
0.0
  0
MTEXT
  5
392
330
1B1
100
AcDbEntity
  8
0
  6
Continuous
 62
     7
100
AcDbMText
 10
-239.9999475323
 20
-1.0295663917
 30
0.0
 40
4.83362
 41
0.0
 71
     1
 72
     1
  1
SOLIDWORKS Educational Product.
  7
SLDTEXTSTYLE0
 73
     1
 44
1.0
  0
MTEXT
  5
393
330
1B1
100
AcDbEntity
  8
0
  6
Continuous
 62
     7
100
AcDbMText
 10
-239.9999475323
 20
-8.2799963917
 30
0.0
 40
4.83362
 41
0.0
 71
     1
 72
     1
  1
For Instructional Use Only.
  7
SLDTEXTSTYLE0
 73
     1
 44
1.0
  0
ENDBLK
  5
1B4
330
1B1
100
AcDbEntity
  8
0
100
AcDbBlockEnd
  0
BLOCK
  5
1CF
330
1CD
100
AcDbEntity
  8
0
100
AcDbBlockBegin
  2
*Paper_Space5
 70
     0
 10
0.0
 20
0.0
 30
0.0
  3
*Paper_Space5
  1

  0
LWPOLYLINE
  5
1D2
330
1CD
100
AcDbEntity
  8
0
  6
Continuous
 62
     7
370
    25
100
AcDbPolyline
 90
       45
 70
   128
 43
0.0
 10
-176.7766581964
 20
93.7573294943
 10
-176.0811670076
 20
89.0012663405
 10
-175.2137930121
 20
84.1873040547
 10
-174.176354534
 20
79.3255344141
 10
-172.9710264136
 20
74.4261494167
 10
-171.6003354472
 20
69.4994199161
 10
-170.0671550904
 20
64.5556740895
 10
-168.3746994348
 20
59.6052757863
 10
-166.5265164691
 20
54.6586028021
 10
-164.5264806423
 20
49.7260251227
 10
-162.3787847407
 20
44.8178831852
 10
-160.0879310988
 20
39.9444662006
 10
-157.6587221605
 20
35.1159905843
 10
-155.0962504118
 20
30.3425785382
 10
-152.4058877047
 20
25.6342368319
 10
-149.5932739964
 20
21.0008358239
 10
-146.6643055254
 20
16.4520887707
 10
-143.6251224513
 20
11.9975314639
 10
-140.4820959829
 20
7.6465022398
 10
-137.2418150213
 20
3.4081224032
 10
-133.911072348
 20
-0.7087228944
 10
-130.496850384
 20
-4.6954032812
 10
-127.0063065529
 20
-8.5435612571
 10
-123.446758276
 20
-12.2451297145
 10
-119.8256676325
 20
-15.7923488494
 10
-116.1506257161
 20
-19.1777824289
 10
-112.4293367218
 20
-22.3943333803
 10
-108.6696017947
 20
-25.4352586687
 10
-104.8793026765
 20
-28.2941834332
 10
-101.0663851821
 20
-30.9651143508
 10
-97.2388425426
 20
-33.4424522003
 10
-93.4046986486
 20
-35.7210036005
 10
-89.5719912295
 20
-37.7959918974
 10
-85.748755003
 20
-39.6630671775
 10
-81.9430048321
 20
-41.3183153869
 10
-78.1627189225
 20
-42.7582665368
 10
-74.415822098
 20
-43.9799019774
 10
-70.710169187
 20
-44.9806607263
 10
-67.0535285558
 20
-45.7584448374
 10
-63.4535658237
 20
-46.3116237984
 10
-59.917827793
 20
-46.6390379495
 10
-56.453726628
 20
-46.7400009143
 10
-53.0685243168
 20
-46.6143010384
 10
-49.7693174474
 20
-46.2622018336
 10
-46.5630223307
 20
-45.6844414248
  0
LWPOLYLINE
  5
1D3
330
1CD
100
AcDbEntity
  8
0
  6
Continuous
 62
     7
370
    25
100
AcDbPolyline
 90
       45
 70
   128
 43
0.0
 10
-46.5630223307
 20
83.1168004465
 10
-49.772752863
 20
87.4027411584
 10
-53.0757230527
 20
91.56998276
 10
-56.4649837238
 20
95.6097577199
 10
-59.9334041526
 20
99.5135666862
 10
-63.4736870697
 20
103.2731963681
 10
-67.0783840129
 20
106.8807368159
 10
-70.7399109984
 20
110.3285980634
 10
-74.4505644765
 20
113.6095260959
 10
-78.2025375397
 20
116.7166181125
 10
-81.9879363472
 20
119.6433370489
 10
-85.7987967334
 20
122.3835253307
 10
-89.6271009636
 20
124.9314178288
 10
-93.4647946027
 20
127.2816539883
 10
-97.3038034611
 20
129.429289107
 10
-101.1360505819
 20
131.3698047382
 10
-104.9534732346
 20
133.0991181979
 10
-108.7480398779
 20
134.6135911538
 10
-112.5117670579
 20
135.91003728
 10
-116.2367362043
 20
136.9857289614
 10
-119.9151102903
 20
137.8384030316
 10
-123.5391503215
 20
138.4662655351
 10
-127.1012316177
 20
138.8679955012
 10
-130.5938598549
 20
139.0427477232
 10
-134.0096868323
 20
138.9901545369
 10
-137.341525933
 20
138.7103265941
 10
-140.5823672432
 20
138.2038526295
 10
-143.7253923013
 20
137.4717982225
 10
-146.7639884428
 20
136.5157035549
 10
-149.691762713
 20
135.3375801707
 10
-152.5025553172
 20
133.939906744
 10
-155.1904525805
 20
132.325623864
 10
-157.7497993897
 20
130.4981278481
 10
-160.1752110911
 20
128.4612635966
 10
-162.4615848191
 20
126.2193165033
 10
-164.6041102328
 20
123.7770034393
 10
-166.5982796362
 20
121.1394628289
 10
-168.439897462
 20
118.3122438392
 10
-170.1250890986
 20
115.3012947049
 10
-171.6503090425
 20
112.1129502137
 10
-173.0123483572
 20
108.7539183783
 10
-174.2083414247
 20
105.2312663236
 10
-175.2357719747
 20
101.5524054179
 10
-176.0924783784
 20
97.7250756798
 10
-176.7766581964
 20
93.7573294943
  0
LWPOLYLINE
  5
1E5
330
1CD
100
AcDbEntity
  8
0
  6
Continuous
 62
     7
370
    25
100
AcDbPolyline
 90
       17
 70
   128
 43
0.0
 10
-3.0210933263
 20
37.1593867412
 10
-2.9376641132
 20
36.6268852888
 10
-2.7000778154
 20
36.0791270363
 10
-2.344504793
 20
35.5995032123
 10
-1.9250778154
 20
35.2610321961
 10
-1.5056508378
 20
35.1152431317
 10
-1.1500778154
 20
35.1843310826
 10
-0.9124915176
 20
35.4577780345
 10
-0.8290623046
 20
35.8939541678
 10
-0.9124915176
 20
36.4264556202
 10
-1.1500778154
 20
36.9742138727
 10
-1.5056508378
 20
37.4538376967
 10
-1.9250778154
 20
37.7923087129
 10
-2.344504793
 20
37.9380977773
 10
-2.7000778154
 20
37.8690098264
 10
-2.9376641132
 20
37.5955628745
 10
-3.0210933263
 20
37.1593867412
  0
LWPOLYLINE
  5
1E6
330
1CD
100
AcDbEntity
  8
0
  6
Continuous
 62
     7
370
    25
100
AcDbPolyline
 90
       17
 70
   128
 43
0.0
 10
-3.0326182374
 20
33.8999037973
 10
-2.9491890243
 20
33.3674023449
 10
-2.7116027266
 20
32.8196440924
 10
-2.3560297042
 20
32.3400202684
 10
-1.9366027266
 20
32.0015492522
 10
-1.517175749
 20
31.8557601878
 10
-1.1616027266
 20
31.9248481387
 10
-0.9240164288
 20
32.1982950906
 10
-0.8405872157
 20
32.634471224
 10
-0.9240164288
 20
33.1669726763
 10
-1.1616027266
 20
33.7147309288
 10
-1.517175749
 20
34.1943547528
 10
-1.9366027266
 20
34.532825769
 10
-2.3560297042
 20
34.6786148334
 10
-2.7116027266
 20
34.6095268825
 10
-2.9491890243
 20
34.3360799306
 10
-3.0326182374
 20
33.8999037973
  0
LWPOLYLINE
  5
1E7
330
1CD
100
AcDbEntity
  8
0
  6
Continuous
 62
     7
370
    25
100
AcDbPolyline
 90
       17
 70
   128
 43
0.0
 10
-3.0441431486
 20
30.6404208534
 10
-2.9607139355
 20
30.107919401
 10
-2.7231276377
 20
29.5601611486
 10
-2.3675546153
 20
29.0805373245
 10
-1.9481276377
 20
28.7420663083
 10
-1.5287006601
 20
28.5962772439
 10
-1.1731276377
 20
28.6653651948
 10
-0.9355413399
 20
28.9388121467
 10
-0.8521121269
 20
29.3749882801
 10
-0.9355413399
 20
29.9074897325
 10
-1.1731276377
 20
30.4552479849
 10
-1.5287006601
 20
30.934871809
 10
-1.9481276377
 20
31.2733428252
 10
-2.3675546153
 20
31.4191318896
 10
-2.7231276377
 20
31.3500439387
 10
-2.9607139355
 20
31.0765969867
 10
-3.0441431486
 20
30.6404208534
  0
LWPOLYLINE
  5
1E8
330
1CD
100
AcDbEntity
  8
0
  6
Continuous
 62
     7
370
    25
100
AcDbPolyline
 90
       17
 70
   128
 43
0.0
 10
-3.0556680597
 20
27.3809379095
 10
-2.9722388466
 20
26.8484364571
 10
-2.7346525489
 20
26.3006782047
 10
-2.3790795265
 20
25.8210543806
 10
-1.9596525489
 20
25.4825833644
 10
-1.5402255713
 20
25.3367943001
 10
-1.1846525489
 20
25.4058822509
 10
-0.9470662511
 20
25.6793292029
 10
-0.863637038
 20
26.1155053362
 10
-0.9470662511
 20
26.6480067886
 10
-1.1846525489
 20
27.1957650411
 10
-1.5402255713
 20
27.6753888651
 10
-1.9596525489
 20
28.0138598813
 10
-2.3790795265
 20
28.1596489457
 10
-2.7346525489
 20
28.0905609948
 10
-2.9722388466
 20
27.8171140429
 10
-3.0556680597
 20
27.3809379095
  0
LWPOLYLINE
  5
1E9
330
1CD
100
AcDbEntity
  8
0
  6
Continuous
 62
     7
370
    25
100
AcDbPolyline
 90
       17
 70
   128
 43
0.0
 10
-3.1749094475
 20
-46.6683610143
 10
-3.0914802345
 20
-47.2008624667
 10
-2.8538939367
 20
-47.7486207192
 10
-2.4983209143
 20
-48.2282445432
 10
-2.0788939367
 20
-48.5667155594
 10
-1.6594669591
 20
-48.7125046238
 10
-1.3038939367
 20
-48.6434166729
 10
-1.0663076389
 20
-48.369969721
 10
-0.9828784258
 20
-47.9337935877
 10
-1.0663076389
 20
-47.4012921353
 10
-1.3038939367
 20
-46.8535338828
 10
-1.6594669591
 20
-46.3739100588
 10
-2.0788939367
 20
-46.0354390426
 10
-2.4983209143
 20
-45.8896499782
 10
-2.8538939367
 20
-45.9587379291
 10
-3.0914802345
 20
-46.232184881
 10
-3.1749094475
 20
-46.6683610143
  0
LWPOLYLINE
  5
1EA
330
1CD
100
AcDbEntity
  8
0
  6
Continuous
 62
     7
370
    25
100
AcDbPolyline
 90
       17
 70
   128
 43
0.0
 10
-3.1749094475
 20
-43.4021977668
 10
-3.0914802345
 20
-43.9346992192
 10
-2.8538939367
 20
-44.4824574717
 10
-2.4983209143
 20
-44.9620812957
 10
-2.0788939367
 20
-45.3005523119
 10
-1.6594669591
 20
-45.4463413763
 10
-1.3038939367
 20
-45.3772534254
 10
-1.0663076389
 20
-45.1038064735
 10
-0.9828784258
 20
-44.6676303401
 10
-1.0663076389
 20
-44.1351288877
 10
-1.3038939367
 20
-43.5873706353
 10
-1.6594669591
 20
-43.1077468112
 10
-2.0788939367
 20
-42.769275795
 10
-2.4983209143
 20
-42.6234867306
 10
-2.8538939367
 20
-42.6925746815
 10
-3.0914802345
 20
-42.9660216335
 10
-3.1749094475
 20
-43.4021977668
  0
LWPOLYLINE
  5
1EB
330
1CD
100
AcDbEntity
  8
0
  6
Continuous
 62
     7
370
    25
100
AcDbPolyline
 90
       17
 70
   128
 43
0.0
 10
-3.1749094475
 20
-40.1360345193
 10
-3.0914802345
 20
-40.6685359716
 10
-2.8538939367
 20
-41.2162942241
 10
-2.4983209143
 20
-41.6959180481
 10
-2.0788939367
 20
-42.0343890643
 10
-1.6594669591
 20
-42.1801781287
 10
-1.3038939367
 20
-42.1110901778
 10
-1.0663076389
 20
-41.8376432259
 10
-0.9828784258
 20
-41.4014670926
 10
-1.0663076389
 20
-40.8689656402
 10
-1.3038939367
 20
-40.3212073877
 10
-1.6594669591
 20
-39.8415835637
 10
-2.0788939367
 20
-39.5031125475
 10
-2.4983209143
 20
-39.3573234831
 10
-2.8538939367
 20
-39.426411434
 10
-3.0914802345
 20
-39.6998583859
 10
-3.1749094475
 20
-40.1360345193
  0
LWPOLYLINE
  5
1EC
330
1CD
100
AcDbEntity
  8
0
  6
Continuous
 62
     7
370
    25
100
AcDbPolyline
 90
       17
 70
   128
 43
0.0
 10
-3.1749094475
 20
-49.9345242619
 10
-3.0914802345
 20
-50.4670257143
 10
-2.8538939367
 20
-51.0147839667
 10
-2.4983209143
 20
-51.4944077908
 10
-2.0788939367
 20
-51.832878807
 10
-1.6594669591
 20
-51.9786678714
 10
-1.3038939367
 20
-51.9095799205
 10
-1.0663076389
 20
-51.6361329685
 10
-0.9828784258
 20
-51.1999568352
 10
-1.0663076389
 20
-50.6674553828
 10
-1.3038939367
 20
-50.1196971304
 10
-1.6594669591
 20
-49.6400733063
 10
-2.0788939367
 20
-49.3016022901
 10
-2.4983209143
 20
-49.1558132257
 10
-2.8538939367
 20
-49.2249011766
 10
-3.0914802345
 20
-49.4983481285
 10
-3.1749094475
 20
-49.9345242619
  0
LWPOLYLINE
  5
206
330
1CD
100
AcDbEntity
  8
0
  6
Continuous
 62
     7
370
    25
100
AcDbPolyline
 90
       32
 70
   128
 43
0.0
 10
-39.484883451
 20
87.2029230462
 10
-42.6946139834
 20
91.4888637581
 10
-45.997584173
 20
95.6561053596
 10
-49.3868448441
 20
99.6958803196
 10
-52.8552652729
 20
103.5996892859
 10
-56.39554819
 20
107.3593189678
 10
-60.0002451332
 20
110.9668594156
 10
-63.6617721187
 20
114.414720663
 10
-67.3724255969
 20
117.6956486955
 10
-71.12439866
 20
120.8027407121
 10
-74.9097974675
 20
123.7294596485
 10
-78.7206578538
 20
126.4696479304
 10
-82.548962084
 20
129.0175404285
 10
-86.3866557231
 20
131.367776588
 10
-90.2256645814
 20
133.5154117066
 10
-94.0579117022
 20
135.4559273379
 10
-97.8753343549
 20
137.1852407976
 10
-101.6699009982
 20
138.6997137534
 10
-105.4336281783
 20
139.9961598797
 10
-109.1585973246
 20
141.0718515611
 10
-112.8369714106
 20
141.9245256313
 10
-116.4610114418
 20
142.5523881348
 10
-120.023092738
 20
142.9541181009
 10
-123.5157209752
 20
143.1288703228
 10
-126.9315479526
 20
143.0762771366
 10
-130.2633870533
 20
142.7964491937
 10
-133.5042283636
 20
142.2899752292
 10
-136.6472534217
 20
141.5579208222
 10
-139.6858495631
 20
140.6018261546
 10
-142.6136238333
 20
139.4237027704
 10
-145.4244164375
 20
138.0260293437
 10
-146.1960764228
 20
137.592025443
  0
LINE
  5
21C
330
1CD
100
AcDbEntity
  8
0
  6
Continuous
 62
     7
370
    25
100
AcDbLine
 10
-146.1960764228
 20
137.592025443
 30
0.0
 11
-153.2742153025
 21
133.5059028433
 31
0.0
  0
LINE
  5
21D
330
1CD
100
AcDbEntity
  8
0
  6
Continuous
 62
     7
370
    25
100
AcDbLine
 10
16.3553390593
 20
46.7948035515
 30
0.0
 11
-46.5630223307
 21
83.1168004465
 31
0.0
  0
LINE
  5
21E
330
1CD
100
AcDbEntity
  8
0
  6
Continuous
 62
     7
370
    25
100
AcDbLine
 10
35.3553390593
 20
13.8858383043
 30
0.0
 11
16.3553390593
 21
46.7948035515
 31
0.0
  0
LINE
  5
21F
330
1CD
100
AcDbEntity
  8
0
  6
Continuous
 62
     7
370
    25
100
AcDbLine
 10
35.3553390593
 20
1.637726126
 30
0.0
 11
35.3553390593
 21
13.8858383043
 31
0.0
  0
LINE
  5
220
330
1CD
100
AcDbEntity
  8
0
  6
Continuous
 62
     7
370
    25
100
AcDbLine
 10
-7.0710678119
 20
26.1299694807
 30
0.0
 11
35.3553390593
 21
1.637726126
 31
0.0
  0
LINE
  5
221
330
1CD
100
AcDbEntity
  8
0
  6
Continuous
 62
     7
370
    25
100
AcDbLine
 10
-7.0710678119
 20
-34.2940505989
 30
0.0
 11
-7.0710678119
 21
26.1299694807
 31
0.0
  0
LINE
  5
222
330
1CD
100
AcDbEntity
  8
0
  6
Continuous
 62
     7
370
    25
100
AcDbLine
 10
2.9832663859
 20
-40.0982941844
 30
0.0
 11
-7.0710678119
 21
-34.2940505989
 31
0.0
  0
LINE
  5
223
330
1CD
100
AcDbEntity
  8
0
  6
Continuous
 62
     7
370
    25
100
AcDbLine
 10
-46.5630223307
 20
-45.6844414248
 30
0.0
 11
2.9832663859
 21
-74.2869050803
 31
0.0
  0
LINE
  5
224
330
1CD
100
AcDbEntity
  8
0
  6
Continuous
 62
     7
370
    25
100
AcDbLine
 10
-47.1813810342
 20
36.7104319288
 30
0.0
 11
-47.1813810342
 21
75.4144664121
 31
0.0
  0
LINE
  5
225
330
1CD
100
AcDbEntity
  8
0
  6
Continuous
 62
     7
370
    25
100
AcDbLine
 10
-47.1813810342
 20
75.4144664121
 30
0.0
 11
-80.6982424624
 21
94.7633386623
 31
0.0
  0
LINE
  5
226
330
1CD
100
AcDbEntity
  8
0
  6
Continuous
 62
     7
370
    25
100
AcDbLine
 10
-80.6982424624
 20
94.7633386623
 30
0.0
 11
-80.6982424624
 21
56.0593041789
 31
0.0
  0
LINE
  5
227
330
1CD
100
AcDbEntity
  8
0
  6
Continuous
 62
     7
370
    25
100
AcDbLine
 10
-80.6982424624
 20
56.0593041789
 30
0.0
 11
-47.1813810342
 21
36.7104319288
 31
0.0
  0
LINE
  5
228
330
1CD
100
AcDbEntity
  8
0
  6
Continuous
 62
     7
370
    25
100
AcDbLine
 10
-38.4758678447
 20
-25.9170774172
 30
0.0
 11
-38.4758678447
 21
21.4422896722
 31
0.0
  0
LINE
  5
229
330
1CD
100
AcDbEntity
  8
0
  6
Continuous
 62
     7
370
    25
100
AcDbLine
 10
-38.4758678447
 20
21.4422896722
 30
0.0
 11
-157.9769138652
 21
90.4287751212
 31
0.0
  0
LINE
  5
22A
330
1CD
100
AcDbEntity
  8
0
  6
Continuous
 62
     7
370
    25
100
AcDbLine
 10
-157.9769138652
 20
90.4287751212
 30
0.0
 11
-157.9769138652
 21
43.0694080318
 31
0.0
  0
LINE
  5
22B
330
1CD
100
AcDbEntity
  8
0
  6
Continuous
 62
     7
370
    25
100
AcDbLine
 10
-157.9769138652
 20
43.0694080318
 30
0.0
 11
-38.4758678447
 21
-25.9170774172
 31
0.0
  0
LINE
  5
22C
330
1CD
100
AcDbEntity
  8
0
  6
Continuous
 62
     7
370
    25
100
AcDbLine
 10
-27.7916338438
 20
-2.3768603635
 30
0.0
 11
-27.7916338438
 21
-4.4263778013
 31
0.0
  0
LINE
  5
22D
330
1CD
100
AcDbEntity
  8
0
  6
Continuous
 62
     7
370
    25
100
AcDbLine
 10
-27.7916338438
 20
-4.4263778013
 30
0.0
 11
-15.0637117824
 21
-11.7740508077
 31
0.0
  0
LINE
  5
22E
330
1CD
100
AcDbEntity
  8
0
  6
Continuous
 62
     7
370
    25
100
AcDbLine
 10
-15.0637117824
 20
-11.7740508077
 30
0.0
 11
-15.0637117824
 21
-9.7245333699
 31
0.0
  0
LINE
  5
22F
330
1CD
100
AcDbEntity
  8
0
  6
Continuous
 62
     7
370
    25
100
AcDbLine
 10
-15.0637117824
 20
-9.7245333699
 30
0.0
 11
-27.7916338438
 21
-2.3768603635
 31
0.0
  0
LINE
  5
230
330
1CD
100
AcDbEntity
  8
0
  6
Continuous
 62
     7
370
    25
100
AcDbLine
 10
-15.0036538403
 20
15.9995296981
 30
0.0
 11
-27.7314175713
 21
23.4204220011
 31
0.0
  0
LINE
  5
231
330
1CD
100
AcDbEntity
  8
0
  6
Continuous
 62
     7
370
    25
100
AcDbLine
 10
-27.7314175713
 20
23.4204220011
 30
0.0
 11
-27.74027027
 21
21.3760406126
 31
0.0
  0
LINE
  5
232
330
1CD
100
AcDbEntity
  8
0
  6
Continuous
 62
     7
370
    25
100
AcDbLine
 10
-27.74027027
 20
21.3760406126
 30
0.0
 11
-15.0125065389
 21
13.9551483096
 31
0.0
  0
LINE
  5
233
330
1CD
100
AcDbEntity
  8
0
  6
Continuous
 62
     7
370
    25
100
AcDbLine
 10
-15.0125065389
 20
13.9551483096
 30
0.0
 11
-15.0036538403
 21
15.9995296981
 31
0.0
  0
LINE
  5
234
330
1CD
100
AcDbEntity
  8
0
  6
Continuous
 62
     7
370
    25
100
AcDbLine
 10
42.433477939
 20
17.9719609039
 30
0.0
 11
35.3553390593
 21
13.8858383043
 31
0.0
  0
LINE
  5
235
330
1CD
100
AcDbEntity
  8
0
  6
Continuous
 62
     7
370
    25
100
AcDbLine
 10
23.433477939
 20
50.8809261512
 30
0.0
 11
16.3553390593
 21
46.7948035515
 31
0.0
  0
LINE
  5
236
330
1CD
100
AcDbEntity
  8
0
  6
Continuous
 62
     7
370
    25
100
AcDbLine
 10
42.433477939
 20
17.9719609039
 30
0.0
 11
23.433477939
 21
50.8809261512
 31
0.0
  0
LINE
  5
237
330
1CD
100
AcDbEntity
  8
0
  6
Continuous
 62
     7
370
    25
100
AcDbLine
 10
42.433477939
 20
5.7238487257
 30
0.0
 11
35.3553390593
 21
1.637726126
 31
0.0
  0
LINE
  5
238
330
1CD
100
AcDbEntity
  8
0
  6
Continuous
 62
     7
370
    25
100
AcDbLine
 10
42.433477939
 20
5.7238487257
 30
0.0
 11
42.433477939
 21
17.9719609039
 31
0.0
  0
LINE
  5
239
330
1CD
100
AcDbEntity
  8
0
  6
Continuous
 62
     7
370
    25
100
AcDbLine
 10
-39.484883451
 20
87.2029230462
 30
0.0
 11
-46.5630223307
 21
83.1168004465
 31
0.0
  0
LINE
  5
23A
330
1CD
100
AcDbEntity
  8
0
  6
Continuous
 62
     7
370
    25
100
AcDbLine
 10
23.433477939
 20
50.8809261512
 30
0.0
 11
-39.484883451
 21
87.2029230462
 31
0.0
  0
LINE
  5
23B
330
1CD
100
AcDbEntity
  8
0
  6
Continuous
 62
     7
370
    25
100
AcDbLine
 10
6.3494778504
 20
-76.2301775951
 30
0.0
 11
6.3440743547
 21
-76.2332969667
 31
0.0
  0
LINE
  5
23C
330
1CD
100
AcDbEntity
  8
0
  6
Continuous
 62
     7
370
    25
100
AcDbLine
 10
6.3440743547
 20
18.3793340087
 30
0.0
 11
6.3440743547
 21
-76.2332969667
 31
0.0
  0
LINE
  5
23D
330
1CD
100
AcDbEntity
  8
0
  6
Continuous
 62
     7
370
    25
100
AcDbLine
 10
6.3440743547
 20
18.3793340087
 30
0.0
 11
6.3494778504
 21
18.3824533804
 31
0.0
  0
LINE
  5
23E
330
1CD
100
AcDbEntity
  8
0
  6
Continuous
 62
     7
370
    25
100
AcDbLine
 10
13.3782621265
 20
14.3248225868
 30
0.0
 11
13.3782621265
 21
-37.9839359057
 31
0.0
  0
LINE
  5
23F
330
1CD
100
AcDbEntity
  8
0
  6
Continuous
 62
     7
370
    25
100
AcDbLine
 10
6.3494778504
 20
-42.0415666992
 30
0.0
 11
13.3782621265
 21
-37.9839359057
 31
0.0
  0
LINE
  5
240
330
1CD
100
AcDbEntity
  8
0
  6
Continuous
 62
     7
370
    25
100
AcDbLine
 10
6.3494778504
 20
-42.0415666992
 30
0.0
 11
6.3494778504
 21
-76.2301775951
 31
0.0
  0
LINE
  5
241
330
1CD
100
AcDbEntity
  8
0
  6
Continuous
 62
     7
370
    25
100
AcDbLine
 10
6.3440743547
 20
-76.2332969667
 30
0.0
 11
2.9832663859
 21
-74.2931438237
 31
0.0
  0
LINE
  5
242
330
1CD
100
AcDbEntity
  8
0
  6
Continuous
 62
     7
370
    25
100
AcDbLine
 10
2.9832663859
 20
20.3194871517
 30
0.0
 11
2.9832663859
 21
-74.2931438237
 31
0.0
  0
LINE
  5
243
330
1CD
100
AcDbEntity
  8
0
  6
Continuous
 62
     7
370
    25
100
AcDbLine
 10
2.9832663859
 20
20.3194871517
 30
0.0
 11
6.3440743547
 21
18.3793340087
 31
0.0
  0
LINE
  5
244
330
1CD
100
AcDbEntity
  8
0
  6
Continuous
 62
     7
370
    25
100
AcDbLine
 10
2.9886698816
 20
20.3226065234
 30
0.0
 11
2.9832663859
 21
20.3194871517
 31
0.0
  0
LINE
  5
245
330
1CD
100
AcDbEntity
  8
0
  6
Continuous
 62
     7
370
    25
100
AcDbLine
 10
-3.1749094475
 20
-32.0448462508
 30
0.0
 11
-7.0710678119
 21
-34.2940505989
 31
0.0
  0
LINE
  5
246
330
1CD
100
AcDbEntity
  8
0
  6
Continuous
 62
     7
370
    25
100
AcDbLine
 10
0.0070710678
 20
-33.8817645024
 30
0.0
 11
0.0070710678
 21
22.043846881
 31
0.0
  0
LINE
  5
247
330
1CD
100
AcDbEntity
  8
0
  6
Continuous
 62
     7
370
    25
100
AcDbLine
 10
35.3553390593
 20
-71.0344061319
 30
0.0
 11
35.3553390593
 21
-58.7862939536
 31
0.0
  0
LINE
  5
248
330
1CD
100
AcDbEntity
  8
0
  6
Continuous
 62
     7
370
    25
100
AcDbLine
 10
16.3553390593
 20
-82.0064383198
 30
0.0
 11
35.3553390593
 21
-71.0344061319
 31
0.0
  0
LINE
  5
249
330
1CD
100
AcDbEntity
  8
0
  6
Continuous
 62
     7
370
    25
100
AcDbLine
 10
6.3494778504
 20
-76.2301775951
 30
0.0
 11
16.3553390593
 21
-82.0064383198
 31
0.0
  0
LINE
  5
24A
330
1CD
100
AcDbEntity
  8
0
  6
Continuous
 62
     7
370
    25
100
AcDbLine
 10
35.3553390593
 20
-58.7862939536
 30
0.0
 11
6.3494778504
 21
-42.0415666992
 31
0.0
  0
LINE
  5
24B
330
1CD
100
AcDbEntity
  8
0
  6
Continuous
 62
     7
370
    25
100
AcDbLine
 10
42.433477939
 20
-66.9482835322
 30
0.0
 11
35.3553390593
 21
-71.0344061319
 31
0.0
  0
LINE
  5
24C
330
1CD
100
AcDbEntity
  8
0
  6
Continuous
 62
     7
370
    25
100
AcDbLine
 10
42.433477939
 20
-54.7001713539
 30
0.0
 11
35.3553390593
 21
-58.7862939536
 31
0.0
  0
LINE
  5
24D
330
1CD
100
AcDbEntity
  8
0
  6
Continuous
 62
     7
370
    25
100
AcDbLine
 10
42.433477939
 20
-66.9482835322
 30
0.0
 11
42.433477939
 21
-54.7001713539
 31
0.0
  0
LINE
  5
24E
330
1CD
100
AcDbEntity
  8
0
  6
Continuous
 62
     7
370
    25
100
AcDbLine
 10
-3.1749094475
 20
-32.0448462508
 30
0.0
 11
2.9832663859
 21
-35.5998854883
 31
0.0
  0
LINE
  5
24F
330
1CD
100
AcDbEntity
  8
0
  6
Continuous
 62
     7
370
    25
100
AcDbLine
 10
42.433477939
 20
-54.7001713539
 30
0.0
 11
13.3782621265
 21
-37.9269522934
 31
0.0
  0
LINE
  5
250
330
1CD
100
AcDbEntity
  8
0
  6
Continuous
 62
     7
370
    25
100
AcDbLine
 10
23.433477939
 20
-77.9203157202
 30
0.0
 11
16.3553390593
 21
-82.0064383198
 31
0.0
  0
LINE
  5
251
330
1CD
100
AcDbEntity
  8
0
  6
Continuous
 62
     7
370
    25
100
AcDbLine
 10
23.433477939
 20
-77.9203157202
 30
0.0
 11
42.433477939
 21
-66.9482835322
 31
0.0
  0
LINE
  5
252
330
1CD
100
AcDbEntity
  8
0
  6
Continuous
 62
     7
370
    25
100
AcDbLine
 10
-27.74027027
 20
21.3760406126
 30
0.0
 11
-25.9739335194
 21
22.3957251141
 31
0.0
  0
LINE
  5
253
330
1CD
100
AcDbEntity
  8
0
  6
Continuous
 62
     7
370
    25
100
AcDbLine
 10
-27.7916338438
 20
-4.4263778013
 30
0.0
 11
-26.0165073385
 21
-3.4016190824
 31
0.0
  0
LINE
  5
254
330
1CD
100
AcDbEntity
  8
0
  6
Continuous
 62
     7
370
    25
100
AcDbLine
 10
-73.6201035827
 20
60.1454267786
 30
0.0
 11
-80.6982424624
 21
56.0593041789
 31
0.0
  0
LINE
  5
255
330
1CD
100
AcDbEntity
  8
0
  6
Continuous
 62
     7
370
    25
100
AcDbLine
 10
-73.6201035827
 20
60.1454267786
 30
0.0
 11
-47.1813810342
 21
44.8826771281
 31
0.0
  0
LINE
  5
256
330
1CD
100
AcDbEntity
  8
0
  6
Continuous
 62
     7
370
    25
100
AcDbLine
 10
-73.6201035827
 20
90.6772160627
 30
0.0
 11
-73.6201035827
 21
60.1454267786
 31
0.0
  0
LINE
  5
257
330
1CD
100
AcDbEntity
  8
0
  6
Continuous
 62
     7
370
    25
100
AcDbLine
 10
-150.8987749855
 20
47.1555306315
 30
0.0
 11
-157.9769138652
 21
43.0694080318
 31
0.0
  0
LINE
  5
258
330
1CD
100
AcDbEntity
  8
0
  6
Continuous
 62
     7
370
    25
100
AcDbLine
 10
-150.8987749855
 20
47.1555306315
 30
0.0
 11
-38.4758678447
 21
-17.7448322179
 31
0.0
  0
LINE
  5
259
330
1CD
100
AcDbEntity
  8
0
  6
Continuous
 62
     7
370
    25
100
AcDbLine
 10
-150.8987749855
 20
86.3426525215
 30
0.0
 11
-150.8987749855
 21
47.1555306315
 31
0.0
  0
VIEWPORT
  5
37F
330
1CD
100
AcDbEntity
  8
0
100
AcDbViewport
 10
0.0
 20
0.0
 30
0.0
 40
205.6
 41
156.0
 68
     1
 69
     1
 12
-89.9999737662
 22
0.0066187146
 13
0.0
 23
0.0
 14
10.0
 24
10.0
 15
10.0
 25
10.0
 16
0.0
 26
0.0
 36
1.0
 17
0.0
 27
0.0
 37
0.0
 42
50.0
 43
0.0
 44
0.0
 45
232.1789477205
 50
0.0
 51
0.0
 72
   100
 90
   557152
  1

281
     0
 71
     1
 74
     0
110
0.0
120
0.0
130
0.0
111
1.0
121
0.0
131
0.0
112
0.0
122
1.0
132
0.0
 79
     0
146
0.0
  0
MTEXT
  5
394
330
1CD
100
AcDbEntity
  8
0
  6
Continuous
 62
     7
100
AcDbMText
 10
-176.7766581964
 20
-83.0260047115
 30
0.0
 40
4.83362
 41
0.0
 71
     1
 72
     1
  1
SOLIDWORKS Educational Product.
  7
SLDTEXTSTYLE0
 73
     1
 44
1.0
  0
MTEXT
  5
395
330
1CD
100
AcDbEntity
  8
0
  6
Continuous
 62
     7
100
AcDbMText
 10
-176.7766581964
 20
-90.2764347115
 30
0.0
 40
4.83362
 41
0.0
 71
     1
 72
     1
  1
For Instructional Use Only.
  7
SLDTEXTSTYLE0
 73
     1
 44
1.0
  0
ENDBLK
  5
1D0
330
1CD
100
AcDbEntity
  8
0
100
AcDbBlockEnd
  0
BLOCK
  5
25C
330
25A
100
AcDbEntity
  8
0
100
AcDbBlockBegin
  2
*Paper_Space6
 70
     0
 10
0.0
 20
0.0
 30
0.0
  3
*Paper_Space6
  1

  0
LWPOLYLINE
  5
25F
330
25A
100
AcDbEntity
  8
0
  6
Continuous
 62
     7
370
    25
100
AcDbPolyline
 90
       45
 70
   128
 43
0.0
 10
-216.9272566885
 20
52.9966828262
 10
-216.0573668399
 20
48.1890420674
 10
-214.9724935219
 20
43.3663562931
 10
-213.6749110145
 20
38.5387355679
 10
-212.1673395124
 20
33.7163003018
 10
-210.4529394215
 20
28.9091600342
 10
-208.5353047341
 20
24.1273922408
 10
-206.4184554946
 20
19.3810212076
 10
-204.1068293718
 20
14.6799970162
 10
-201.6052723562
 20
10.0341746853
 10
-198.919028601
 20
5.4532935108
 10
-196.0537294285
 20
0.9469566488
 10
-193.0153815248
 20
-3.475389016
 10
-189.8103543476
 20
-7.8044726742
 10
-186.4453667738
 20
-12.0312190268
 10
-182.9274730141
 20
-16.1467673102
 10
-179.2640478251
 20
-20.1424898715
 10
-175.4627710487
 20
-24.0100102553
 10
-171.531611513
 20
-27.7412207631
 10
-167.4788103266
 20
-31.3282994509
 10
-163.312863602
 20
-34.7637265259
 10
-159.0425046453
 20
-38.0403001113
 10
-154.6766856476
 20
-41.1511513433
 10
-150.2245589182
 20
-44.0897587715
 10
-145.6954576982
 20
-46.8499620296
 10
-141.0988765944
 20
-49.4259747499
 10
-136.4444516756
 20
-51.8123966936
 10
-131.7419402719
 20
-54.0042250715
 10
-127.0012005195
 20
-55.9968650319
 10
-122.2321706951
 20
-57.7861392926
 10
-117.4448483812
 20
-59.3682968986
 10
-112.6492695081
 20
-60.7400210847
 10
-107.8554873146
 20
-61.8984362292
 10
-103.073551273
 20
-62.8411138819
 10
-98.3134860222
 20
-63.5660778554
 10
-93.5852703516
 20
-64.0718083671
 10
-88.898816283
 20
-64.3572452261
 10
-84.2639482909
 20
-64.4217900553
 10
-79.6903827068
 20
-64.2653075457
 10
-75.187707351
 20
-63.8881257403
 10
-70.7653614323
 20
-63.2910353464
 10
-66.4326157605
 20
-62.4752880777
 10
-62.1985533116
 20
-61.4425940306
 10
-58.0720501863
 20
-60.1951180991
 10
-54.0617570027
 20
-58.7354754366
  0
LWPOLYLINE
  5
260
330
25A
100
AcDbEntity
  8
0
  6
Continuous
 62
     7
370
    25
100
AcDbPolyline
 90
       45
 70
   128
 43
0.0
 10
-54.0617570027
 20
76.4741934677
 10
-58.0763470534
 20
80.1193283002
 10
-62.2075571745
 20
83.6150488634
 10
-66.4466956418
 20
86.9540004507
 10
-70.7848436591
 20
90.1291581844
 10
-75.2128741221
 20
93.1338417956
 10
-79.7214708214
 20
95.9617296787
 10
-84.301148043
 20
98.6068721918
 10
-88.942270525
 20
101.0637041741
 10
-93.6350737301
 20
103.3270566545
 10
-98.3696843889
 20
105.3921677268
 10
-103.1361412727
 20
107.2546925683
 10
-107.9244161508
 20
108.910712581
 10
-112.7244348894
 20
110.3567436358
 10
-117.5260986465
 20
111.5897434032
 10
-122.319305119
 20
112.6071177538
 10
-127.0939697976
 20
113.4067262161
 10
-131.8400471831
 20
113.9868864802
 10
-136.5475519216
 20
114.3463779369
 10
-141.2065798129
 20
114.4844442459
 10
-145.8073286483
 20
114.4007949272
 10
-150.3401188329
 20
114.095605972
 10
-154.7954137517
 20
113.5695194726
 10
-159.163839833
 20
112.8236422714
 10
-163.4362062701
 20
111.8595436323
 10
-167.6035243578
 20
110.679251939
 10
-171.6570264038
 20
109.2852504276
 10
-175.5881841754
 20
107.6804719617
 10
-179.3887268424
 20
105.8682928623
 10
-183.0506583775
 20
103.8525258043
 10
-186.56627438
 20
101.6374117946
 10
-189.928178285
 20
99.2276112497
 10
-193.129296925
 20
96.6281941904
 10
-196.1628954115
 20
93.844629575
 10
-199.0225913044
 20
90.8827737928
 10
-201.7023680403
 20
87.7488583433
 10
-204.196587591
 20
84.449476725
 10
-206.500002325
 20
80.9915705637
 10
-208.6077660484
 20
77.3824150076
 10
-210.5154442008
 20
73.6296034211
 10
-212.2190231855
 20
69.7410314092
 10
-213.7149188132
 20
65.7248802053
 10
-214.9999838435
 20
61.5895994589
 10
-216.071514606
 20
57.3438894585
 10
-216.9272566885
 20
52.9966828262
  0
LWPOLYLINE
  5
272
330
25A
100
AcDbEntity
  8
0
  6
Continuous
 62
     7
370
    25
100
AcDbPolyline
 90
       17
 70
   128
 43
0.0
 10
0.3985764135
 20
39.8159029254
 10
0.5029260108
 20
39.2791061675
 10
0.8000885227
 20
38.7673118806
 10
1.2448236503
 20
38.3584361055
 10
1.7694245021
 20
38.1147264726
 10
2.2940253539
 20
38.0732855642
 10
2.7387604815
 20
38.2404223829
 10
3.0359229933
 20
38.5906918632
 10
3.1402725907
 20
39.0707686519
 10
3.0359229933
 20
39.6075654099
 10
2.7387604815
 20
40.1193596968
 10
2.2940253539
 20
40.5282354718
 10
1.7694245021
 20
40.7719451048
 10
1.2448236503
 20
40.8133860132
 10
0.8000885227
 20
40.6462491945
 10
0.5029260108
 20
40.2959797142
 10
0.3985764135
 20
39.8159029254
  0
LWPOLYLINE
  5
273
330
25A
100
AcDbEntity
  8
0
  6
Continuous
 62
     7
370
    25
100
AcDbPolyline
 90
       17
 70
   128
 43
0.0
 10
0.3841615605
 20
36.3911798339
 10
0.4885111579
 20
35.8543830759
 10
0.7856736697
 20
35.3425887891
 10
1.2304087973
 20
34.933713014
 10
1.7550096491
 20
34.6900033811
 10
2.2796105009
 20
34.6485624726
 10
2.7243456286
 20
34.8156992914
 10
3.0215081404
 20
35.1659687717
 10
3.1258577377
 20
35.6460455604
 10
3.0215081404
 20
36.1828423184
 10
2.7243456286
 20
36.6946366053
 10
2.2796105009
 20
37.1035123803
 10
1.7550096491
 20
37.3472220132
 10
1.2304087973
 20
37.3886629217
 10
0.7856736697
 20
37.221526103
 10
0.4885111579
 20
36.8712566226
 10
0.3841615605
 20
36.3911798339
  0
LWPOLYLINE
  5
274
330
25A
100
AcDbEntity
  8
0
  6
Continuous
 62
     7
370
    25
100
AcDbPolyline
 90
       17
 70
   128
 43
0.0
 10
0.3697467076
 20
32.9664567424
 10
0.4740963049
 20
32.4296599844
 10
0.7712588168
 20
31.9178656975
 10
1.2159939444
 20
31.5089899225
 10
1.7405947962
 20
31.2652802895
 10
2.265195648
 20
31.2238393811
 10
2.7099307756
 20
31.3909761998
 10
3.0070932874
 20
31.7412456801
 10
3.1114428848
 20
32.2213224689
 10
3.0070932874
 20
32.7581192268
 10
2.7099307756
 20
33.2699135137
 10
2.265195648
 20
33.6787892888
 10
1.7405947962
 20
33.9224989217
 10
1.2159939444
 20
33.9639398302
 10
0.7712588168
 20
33.7968030114
 10
0.4740963049
 20
33.4465335311
 10
0.3697467076
 20
32.9664567424
  0
LWPOLYLINE
  5
275
330
25A
100
AcDbEntity
  8
0
  6
Continuous
 62
     7
370
    25
100
AcDbPolyline
 90
       17
 70
   128
 43
0.0
 10
0.3553318546
 20
29.5417336509
 10
0.459681452
 20
29.0049368929
 10
0.7568439638
 20
28.493142606
 10
1.2015790914
 20
28.084266831
 10
1.7261799432
 20
27.840557198
 10
2.250780795
 20
27.7991162896
 10
2.6955159227
 20
27.9662531083
 10
2.9926784345
 20
28.3165225886
 10
3.0970280318
 20
28.7965993773
 10
2.9926784345
 20
29.3333961353
 10
2.6955159227
 20
29.8451904222
 10
2.250780795
 20
30.2540661973
 10
1.7261799432
 20
30.4977758302
 10
1.2015790914
 20
30.5392167386
 10
0.7568439638
 20
30.3720799199
 10
0.459681452
 20
30.0218104396
 10
0.3553318546
 20
29.5417336509
  0
LWPOLYLINE
  5
276
330
25A
100
AcDbEntity
  8
0
  6
Continuous
 62
     7
370
    25
100
AcDbPolyline
 90
       17
 70
   128
 43
0.0
 10
0.2061899611
 20
-48.2235708024
 10
0.3105395585
 20
-48.7603675604
 10
0.6077020703
 20
-49.2721618473
 10
1.0524371979
 20
-49.6810376224
 10
1.5770380497
 20
-49.9247472553
 10
2.1016389015
 20
-49.9661881637
 10
2.5463740292
 20
-49.799051345
 10
2.843536541
 20
-49.4487818647
 10
2.9478861383
 20
-48.968705076
 10
2.843536541
 20
-48.431908318
 10
2.5463740292
 20
-47.9201140311
 10
2.1016389015
 20
-47.511238256
 10
1.5770380497
 20
-47.2675286231
 10
1.0524371979
 20
-47.2260877147
 10
0.6077020703
 20
-47.3932245334
 10
0.3105395585
 20
-47.7434940137
 10
0.2061899611
 20
-48.2235708024
  0
LWPOLYLINE
  5
277
330
25A
100
AcDbEntity
  8
0
  6
Continuous
 62
     7
370
    25
100
AcDbPolyline
 90
       17
 70
   128
 43
0.0
 10
0.2061899611
 20
-44.7949015996
 10
0.3105395585
 20
-45.3316983576
 10
0.6077020703
 20
-45.8434926445
 10
1.0524371979
 20
-46.2523684195
 10
1.5770380497
 20
-46.4960780525
 10
2.1016389015
 20
-46.5375189609
 10
2.5463740292
 20
-46.3703821422
 10
2.843536541
 20
-46.0201126619
 10
2.9478861383
 20
-45.5400358731
 10
2.843536541
 20
-45.0032391152
 10
2.5463740292
 20
-44.4914448283
 10
2.1016389015
 20
-44.0825690532
 10
1.5770380497
 20
-43.8388594203
 10
1.0524371979
 20
-43.7974185119
 10
0.6077020703
 20
-43.9645553306
 10
0.3105395585
 20
-44.3148248109
 10
0.2061899611
 20
-44.7949015996
  0
LWPOLYLINE
  5
278
330
25A
100
AcDbEntity
  8
0
  6
Continuous
 62
     7
370
    25
100
AcDbPolyline
 90
       17
 70
   128
 43
0.0
 10
0.2061899611
 20
-41.3662323968
 10
0.3105395585
 20
-41.9030291548
 10
0.6077020703
 20
-42.4148234417
 10
1.0524371979
 20
-42.8236992167
 10
1.5770380497
 20
-43.0674088497
 10
2.1016389015
 20
-43.1088497581
 10
2.5463740292
 20
-42.9417129394
 10
2.843536541
 20
-42.5914434591
 10
2.9478861383
 20
-42.1113666703
 10
2.843536541
 20
-41.5745699124
 10
2.5463740292
 20
-41.0627756255
 10
2.1016389015
 20
-40.6538998504
 10
1.5770380497
 20
-40.4101902175
 10
1.0524371979
 20
-40.3687493091
 10
0.6077020703
 20
-40.5358861278
 10
0.3105395585
 20
-40.8861556081
 10
0.2061899611
 20
-41.3662323968
  0
LWPOLYLINE
  5
279
330
25A
100
AcDbEntity
  8
0
  6
Continuous
 62
     7
370
    25
100
AcDbPolyline
 90
       17
 70
   128
 43
0.0
 10
0.2061899611
 20
-51.6522400052
 10
0.3105395585
 20
-52.1890367632
 10
0.6077020703
 20
-52.7008310501
 10
1.0524371979
 20
-53.1097068252
 10
1.5770380497
 20
-53.3534164581
 10
2.1016389015
 20
-53.3948573665
 10
2.5463740292
 20
-53.2277205478
 10
2.843536541
 20
-52.8774510675
 10
2.9478861383
 20
-52.3973742788
 10
2.843536541
 20
-51.8605775208
 10
2.5463740292
 20
-51.3487832339
 10
2.1016389015
 20
-50.9399074588
 10
1.5770380497
 20
-50.6961978259
 10
1.0524371979
 20
-50.6547569175
 10
0.6077020703
 20
-50.8218937362
 10
0.3105395585
 20
-51.1721632165
 10
0.2061899611
 20
-51.6522400052
  0
LWPOLYLINE
  5
289
330
25A
100
AcDbEntity
  8
0
  6
Continuous
 62
     7
370
    25
100
AcDbPolyline
 90
       35
 70
   128
 43
0.0
 10
-49.3901361595
 20
81.0338386258
 10
-53.4047262102
 20
84.6789734583
 10
-57.5359363313
 20
88.1746940215
 10
-61.7750747986
 20
91.5136456088
 10
-66.1132228159
 20
94.6888033425
 10
-70.5412532789
 20
97.6934869537
 10
-75.0498499783
 20
100.5213748368
 10
-79.6295271998
 20
103.1665173499
 10
-84.2706496818
 20
105.6233493322
 10
-88.9634528869
 20
107.8867018126
 10
-93.6980635457
 20
109.951812885
 10
-98.4645204295
 20
111.8143377265
 10
-103.2527953076
 20
113.4703577391
 10
-108.0528140462
 20
114.916388794
 10
-112.8544778033
 20
116.1493885614
 10
-117.6476842759
 20
117.1667629119
 10
-122.4223489544
 20
117.9663713742
 10
-127.1684263399
 20
118.5465316383
 10
-131.8759310784
 20
118.906023095
 10
-136.5349589698
 20
119.044089404
 10
-141.1357078051
 20
118.9604400853
 10
-145.6684979897
 20
118.6552511301
 10
-150.1237929085
 20
118.1291646307
 10
-154.4922189898
 20
117.3832874295
 10
-158.7645854269
 20
116.4191887904
 10
-162.9319035146
 20
115.2388970972
 10
-166.9854055606
 20
113.8448955857
 10
-170.9165633323
 20
112.2401171198
 10
-174.7171059992
 20
110.4279380204
 10
-178.3790375343
 20
108.4121709624
 10
-181.8946535368
 20
106.1970569528
 10
-185.2565574418
 20
103.7872564078
 10
-188.4576760818
 20
101.1878393485
 10
-191.4912745683
 20
98.4042747331
 10
-191.5192877203
 20
98.3769487655
  0
LINE
  5
2A7
330
25A
100
AcDbEntity
  8
0
  6
Continuous
 62
     7
370
    25
100
AcDbLine
 10
-191.5192877203
 20
98.3769487655
 30
0.0
 11
-196.1909085635
 21
93.8173036074
 31
0.0
  0
LINE
  5
2A8
330
25A
100
AcDbEntity
  8
0
  6
Continuous
 62
     7
370
    25
100
AcDbLine
 10
24.6337674641
 20
55.0864361588
 30
0.0
 11
-54.0617570027
 21
76.4741934677
 31
0.0
  0
LINE
  5
2A9
330
25A
100
AcDbEntity
  8
0
  6
Continuous
 62
     7
370
    25
100
AcDbLine
 10
48.3981334113
 20
25.5956558874
 30
0.0
 11
24.6337674641
 21
55.0864361588
 31
0.0
  0
LINE
  5
2AA
330
25A
100
AcDbEntity
  8
0
  6
Continuous
 62
     7
370
    25
100
AcDbLine
 10
48.3981334113
 20
12.7381463769
 30
0.0
 11
48.3981334113
 21
25.5956558874
 31
0.0
  0
LINE
  5
2AB
330
25A
100
AcDbEntity
  8
0
  6
Continuous
 62
     7
370
    25
100
AcDbLine
 10
-4.6669538893
 20
27.1601000579
 30
0.0
 11
48.3981334113
 21
12.7381463769
 31
0.0
  0
LINE
  5
2AC
330
25A
100
AcDbEntity
  8
0
  6
Continuous
 62
     7
370
    25
100
AcDbLine
 10
-4.6669538893
 20
-36.270280194
 30
0.0
 11
-4.6669538893
 21
27.1601000579
 31
0.0
  0
LINE
  5
2AD
330
25A
100
AcDbEntity
  8
0
  6
Continuous
 62
     7
370
    25
100
AcDbLine
 10
7.9117580755
 20
-39.6889045769
 30
0.0
 11
-4.6669538893
 21
-36.270280194
 31
0.0
  0
LINE
  5
2AE
330
25A
100
AcDbEntity
  8
0
  6
Continuous
 62
     7
370
    25
100
AcDbLine
 10
-54.0617570027
 20
-58.7354754366
 30
0.0
 11
7.9117580755
 21
-75.578548903
 31
0.0
  0
LINE
  5
2AF
330
25A
100
AcDbEntity
  8
0
  6
Continuous
 62
     7
370
    25
100
AcDbLine
 10
-54.8351729247
 20
27.594370586
 30
0.0
 11
-54.8351729247
 21
68.2241006393
 31
0.0
  0
LINE
  5
2B0
330
25A
100
AcDbEntity
  8
0
  6
Continuous
 62
     7
370
    25
100
AcDbLine
 10
-54.8351729247
 20
68.2241006393
 30
0.0
 11
-96.7565918922
 21
79.6174440473
 31
0.0
  0
LINE
  5
2B1
330
25A
100
AcDbEntity
  8
0
  6
Continuous
 62
     7
370
    25
100
AcDbLine
 10
-96.7565918922
 20
79.6174440473
 30
0.0
 11
-96.7565918922
 21
38.987713994
 31
0.0
  0
LINE
  5
2B2
330
25A
100
AcDbEntity
  8
0
  6
Continuous
 62
     7
370
    25
100
AcDbLine
 10
-96.7565918922
 20
38.987713994
 30
0.0
 11
-54.8351729247
 21
27.594370586
 31
0.0
  0
LINE
  5
2B3
330
25A
100
AcDbEntity
  8
0
  6
Continuous
 62
     7
370
    25
100
AcDbLine
 10
-43.9466991776
 20
-35.8327553063
 30
0.0
 11
-43.9466991776
 21
13.8829481344
 31
0.0
  0
LINE
  5
2B4
330
25A
100
AcDbEntity
  8
0
  6
Continuous
 62
     7
370
    25
100
AcDbLine
 10
-43.9466991776
 20
13.8829481344
 30
0.0
 11
-193.4133617411
 21
54.504784336
 31
0.0
  0
LINE
  5
2B5
330
25A
100
AcDbEntity
  8
0
  6
Continuous
 62
     7
370
    25
100
AcDbLine
 10
-193.4133617411
 20
54.504784336
 30
0.0
 11
-193.4133617411
 21
4.7890808953
 31
0.0
  0
LINE
  5
2B6
330
25A
100
AcDbEntity
  8
0
  6
Continuous
 62
     7
370
    25
100
AcDbLine
 10
-193.4133617411
 20
4.7890808953
 30
0.0
 11
-43.9466991776
 21
-35.8327553063
 31
0.0
  0
LINE
  5
2B7
330
25A
100
AcDbEntity
  8
0
  6
Continuous
 62
     7
370
    25
100
AcDbLine
 10
-30.5833283007
 20
-8.2784310582
 30
0.0
 11
-30.5833283007
 21
-10.429920983
 31
0.0
  0
LINE
  5
2B8
330
25A
100
AcDbEntity
  8
0
  6
Continuous
 62
     7
370
    25
100
AcDbLine
 10
-30.5833283007
 20
-10.429920983
 30
0.0
 11
-14.6638021105
 21
-14.7565070873
 31
0.0
  0
LINE
  5
2B9
330
25A
100
AcDbEntity
  8
0
  6
Continuous
 62
     7
370
    25
100
AcDbLine
 10
-14.6638021105
 20
-14.7565070873
 30
0.0
 11
-14.6638021105
 21
-12.6050171625
 31
0.0
  0
LINE
  5
2BA
330
25A
100
AcDbEntity
  8
0
  6
Continuous
 62
     7
370
    25
100
AcDbLine
 10
-14.6638021105
 20
-12.6050171625
 30
0.0
 11
-30.5833283007
 21
-8.2784310582
 31
0.0
  0
LINE
  5
2BB
330
25A
100
AcDbEntity
  8
0
  6
Continuous
 62
     7
370
    25
100
AcDbLine
 10
-14.5886842728
 20
14.4149112476
 30
0.0
 11
-30.5080124304
 21
18.8184017587
 31
0.0
  0
LINE
  5
2BC
330
25A
100
AcDbEntity
  8
0
  6
Continuous
 62
     7
370
    25
100
AcDbLine
 10
-30.5080124304
 20
18.8184017587
 30
0.0
 11
-30.5190849973
 21
16.669947884
 31
0.0
  0
LINE
  5
2BD
330
25A
100
AcDbEntity
  8
0
  6
Continuous
 62
     7
370
    25
100
AcDbLine
 10
-30.5190849973
 20
16.669947884
 30
0.0
 11
-14.5997568397
 21
12.266457373
 31
0.0
  0
LINE
  5
2BE
330
25A
100
AcDbEntity
  8
0
  6
Continuous
 62
     7
370
    25
100
AcDbLine
 10
-14.5997568397
 20
12.266457373
 30
0.0
 11
-14.5886842728
 21
14.4149112476
 31
0.0
  0
LINE
  5
2BF
330
25A
100
AcDbEntity
  8
0
  6
Continuous
 62
     7
370
    25
100
AcDbLine
 10
53.0697542545
 20
30.1553010455
 30
0.0
 11
48.3981334113
 21
25.5956558874
 31
0.0
  0
LINE
  5
2C0
330
25A
100
AcDbEntity
  8
0
  6
Continuous
 62
     7
370
    25
100
AcDbLine
 10
29.3053883073
 20
59.6460813169
 30
0.0
 11
24.6337674641
 21
55.0864361588
 31
0.0
  0
LINE
  5
2C1
330
25A
100
AcDbEntity
  8
0
  6
Continuous
 62
     7
370
    25
100
AcDbLine
 10
53.0697542545
 20
30.1553010455
 30
0.0
 11
29.3053883073
 21
59.6460813169
 31
0.0
  0
LINE
  5
2C2
330
25A
100
AcDbEntity
  8
0
  6
Continuous
 62
     7
370
    25
100
AcDbLine
 10
-49.3901361595
 20
81.0338386258
 30
0.0
 11
-54.0617570027
 21
76.4741934677
 31
0.0
  0
LINE
  5
2C3
330
25A
100
AcDbEntity
  8
0
  6
Continuous
 62
     7
370
    25
100
AcDbLine
 10
29.3053883073
 20
59.6460813169
 30
0.0
 11
-49.3901361595
 21
81.0338386258
 31
0.0
  0
LINE
  5
2C4
330
25A
100
AcDbEntity
  8
0
  6
Continuous
 62
     7
370
    25
100
AcDbLine
 10
53.0697542545
 20
17.297791535
 30
0.0
 11
48.3981334113
 21
12.7381463769
 31
0.0
  0
LINE
  5
2C5
330
25A
100
AcDbEntity
  8
0
  6
Continuous
 62
     7
370
    25
100
AcDbLine
 10
53.0697542545
 20
17.297791535
 30
0.0
 11
53.0697542545
 21
30.1553010455
 31
0.0
  0
LINE
  5
2C6
330
25A
100
AcDbEntity
  8
0
  6
Continuous
 62
     7
370
    25
100
AcDbLine
 10
12.1153091517
 20
22.5945904459
 30
0.0
 11
12.1153091517
 21
-76.7254341322
 31
0.0
  0
LINE
  5
2C7
330
25A
100
AcDbEntity
  8
0
  6
Continuous
 62
     7
370
    25
100
AcDbLine
 10
12.1153091517
 20
-76.7254341322
 30
0.0
 11
7.9117580755
 21
-75.5829990209
 31
0.0
  0
LINE
  5
2C8
330
25A
100
AcDbEntity
  8
0
  6
Continuous
 62
     7
370
    25
100
AcDbLine
 10
7.9117580755
 20
23.7370255573
 30
0.0
 11
7.9117580755
 21
-75.5829990209
 31
0.0
  0
LINE
  5
2C9
330
25A
100
AcDbEntity
  8
0
  6
Continuous
 62
     7
370
    25
100
AcDbLine
 10
7.9117580755
 20
23.7370255573
 30
0.0
 11
12.1153091517
 21
22.5945904459
 31
0.0
  0
LINE
  5
2CA
330
25A
100
AcDbEntity
  8
0
  6
Continuous
 62
     7
370
    25
100
AcDbLine
 10
12.1188754964
 20
-76.7219532704
 30
0.0
 11
12.1153091517
 21
-76.7254341322
 31
0.0
  0
LINE
  5
2CB
330
25A
100
AcDbEntity
  8
0
  6
Continuous
 62
     7
370
    25
100
AcDbLine
 10
12.1153091517
 20
22.5945904459
 30
0.0
 11
12.1188754964
 21
22.5980713077
 31
0.0
  0
LINE
  5
2CC
330
25A
100
AcDbEntity
  8
0
  6
Continuous
 62
     7
370
    25
100
AcDbLine
 10
16.7579219584
 20
21.3372778821
 30
0.0
 11
16.7579219584
 21
-36.3044573809
 31
0.0
  0
LINE
  5
2CD
330
25A
100
AcDbEntity
  8
0
  6
Continuous
 62
     7
370
    25
100
AcDbLine
 10
12.1188754964
 20
-40.8323089442
 30
0.0
 11
16.7579219584
 21
-36.3044573809
 31
0.0
  0
LINE
  5
2CE
330
25A
100
AcDbEntity
  8
0
  6
Continuous
 62
     7
370
    25
100
AcDbLine
 10
12.1188754964
 20
-40.8323089442
 30
0.0
 11
12.1188754964
 21
-76.7219532704
 31
0.0
  0
LINE
  5
2CF
330
25A
100
AcDbEntity
  8
0
  6
Continuous
 62
     7
370
    25
100
AcDbLine
 10
7.9153244202
 20
23.740506419
 30
0.0
 11
7.9117580755
 21
23.7370255573
 31
0.0
  0
LINE
  5
2D0
330
25A
100
AcDbEntity
  8
0
  6
Continuous
 62
     7
370
    25
100
AcDbLine
 10
-2.0954622963
 20
-33.7604255665
 30
0.0
 11
-4.6669538893
 21
-36.270280194
 31
0.0
  0
LINE
  5
2D1
330
25A
100
AcDbEntity
  8
0
  6
Continuous
 62
     7
370
    25
100
AcDbLine
 10
0.0046669539
 20
-34.3311956964
 30
0.0
 11
0.0046669539
 21
25.8904536135
 31
0.0
  0
LINE
  5
2D2
330
25A
100
AcDbEntity
  8
0
  6
Continuous
 62
     7
370
    25
100
AcDbLine
 10
53.0697542545
 20
-46.1325887169
 30
0.0
 11
48.3981334113
 21
-50.6922338751
 31
0.0
  0
LINE
  5
2D3
330
25A
100
AcDbEntity
  8
0
  6
Continuous
 62
     7
370
    25
100
AcDbLine
 10
48.3981334113
 20
-50.6922338751
 30
0.0
 11
12.1188754964
 21
-40.8323089442
 31
0.0
  0
LINE
  5
2D4
330
25A
100
AcDbEntity
  8
0
  6
Continuous
 62
     7
370
    25
100
AcDbLine
 10
-2.0954622963
 20
-33.7604255665
 30
0.0
 11
7.9117580755
 21
-36.4801736348
 31
0.0
  0
LINE
  5
2D5
330
25A
100
AcDbEntity
  8
0
  6
Continuous
 62
     7
370
    25
100
AcDbLine
 10
53.0697542545
 20
-46.1325887169
 30
0.0
 11
16.7579219584
 21
-36.2638107673
 31
0.0
  0
LINE
  5
2D6
330
25A
100
AcDbEntity
  8
0
  6
Continuous
 62
     7
370
    25
100
AcDbLine
 10
48.3981334113
 20
-63.5497433856
 30
0.0
 11
48.3981334113
 21
-50.6922338751
 31
0.0
  0
LINE
  5
2D7
330
25A
100
AcDbEntity
  8
0
  6
Continuous
 62
     7
370
    25
100
AcDbLine
 10
24.6337674641
 20
-80.1232327455
 30
0.0
 11
48.3981334113
 21
-63.5497433856
 31
0.0
  0
LINE
  5
2D8
330
25A
100
AcDbEntity
  8
0
  6
Continuous
 62
     7
370
    25
100
AcDbLine
 10
12.1188754964
 20
-76.7219532704
 30
0.0
 11
24.6337674641
 21
-80.1232327455
 31
0.0
  0
LINE
  5
2D9
330
25A
100
AcDbEntity
  8
0
  6
Continuous
 62
     7
370
    25
100
AcDbLine
 10
53.0697542545
 20
-58.9900982275
 30
0.0
 11
48.3981334113
 21
-63.5497433856
 31
0.0
  0
LINE
  5
2DA
330
25A
100
AcDbEntity
  8
0
  6
Continuous
 62
     7
370
    25
100
AcDbLine
 10
53.0697542545
 20
-58.9900982275
 30
0.0
 11
53.0697542545
 21
-46.1325887169
 31
0.0
  0
LINE
  5
2DB
330
25A
100
AcDbEntity
  8
0
  6
Continuous
 62
     7
370
    25
100
AcDbLine
 10
-30.5190849973
 20
16.669947884
 30
0.0
 11
-28.8015039763
 21
18.3463596153
 31
0.0
  0
LINE
  5
2DC
330
25A
100
AcDbEntity
  8
0
  6
Continuous
 62
     7
370
    25
100
AcDbLine
 10
-92.084971049
 20
43.5473591522
 30
0.0
 11
-96.7565918922
 21
38.987713994
 31
0.0
  0
LINE
  5
2DD
330
25A
100
AcDbEntity
  8
0
  6
Continuous
 62
     7
370
    25
100
AcDbLine
 10
-92.084971049
 20
78.3477976029
 30
0.0
 11
-92.084971049
 21
43.5473591522
 31
0.0
  0
LINE
  5
2DE
330
25A
100
AcDbEntity
  8
0
  6
Continuous
 62
     7
370
    25
100
AcDbLine
 10
-92.084971049
 20
43.5473591522
 30
0.0
 11
-54.8351729247
 21
33.4236621886
 31
0.0
  0
LINE
  5
2DF
330
25A
100
AcDbEntity
  8
0
  6
Continuous
 62
     7
370
    25
100
AcDbLine
 10
-30.5833283007
 20
-10.429920983
 30
0.0
 11
-28.8591144748
 21
-8.7470354307
 31
0.0
  0
LINE
  5
2E0
330
25A
100
AcDbEntity
  8
0
  6
Continuous
 62
     7
370
    25
100
AcDbLine
 10
-188.7417408979
 20
9.3487260534
 30
0.0
 11
-193.4133617411
 21
4.7890808953
 31
0.0
  0
LINE
  5
2E1
330
25A
100
AcDbEntity
  8
0
  6
Continuous
 62
     7
370
    25
100
AcDbLine
 10
-188.7417408979
 20
9.3487260534
 30
0.0
 11
-43.9466991776
 21
-30.0034637037
 31
0.0
  0
LINE
  5
2E2
330
25A
100
AcDbEntity
  8
0
  6
Continuous
 62
     7
370
    25
100
AcDbLine
 10
-188.7417408979
 20
53.2351378916
 30
0.0
 11
-188.7417408979
 21
9.3487260534
 31
0.0
  0
VIEWPORT
  5
381
330
25A
100
AcDbEntity
  8
0
100
AcDbViewport
 10
0.0
 20
0.0
 30
0.0
 40
205.6
 41
156.0
 68
     1
 69
     1
 12
-89.9999737662
 22
0.0066187146
 13
0.0
 23
0.0
 14
10.0
 24
10.0
 15
10.0
 25
10.0
 16
0.0
 26
0.0
 36
1.0
 17
0.0
 27
0.0
 37
0.0
 42
50.0
 43
0.0
 44
0.0
 45
232.1789477205
 50
0.0
 51
0.0
 72
   100
 90
   557152
  1

281
     0
 71
     1
 74
     0
110
0.0
120
0.0
130
0.0
111
1.0
121
0.0
131
0.0
112
0.0
122
1.0
132
0.0
 79
     0
146
0.0
  0
MTEXT
  5
396
330
25A
100
AcDbEntity
  8
0
  6
Continuous
 62
     7
100
AcDbMText
 10
-216.9272566885
 20
-81.1427991372
 30
0.0
 40
4.83362
 41
0.0
 71
     1
 72
     1
  1
SOLIDWORKS Educational Product.
  7
SLDTEXTSTYLE0
 73
     1
 44
1.0
  0
MTEXT
  5
397
330
25A
100
AcDbEntity
  8
0
  6
Continuous
 62
     7
100
AcDbMText
 10
-216.9272566885
 20
-88.3932291372
 30
0.0
 40
4.83362
 41
0.0
 71
     1
 72
     1
  1
For Instructional Use Only.
  7
SLDTEXTSTYLE0
 73
     1
 44
1.0
  0
ENDBLK
  5
25D
330
25A
100
AcDbEntity
  8
0
100
AcDbBlockEnd
  0
BLOCK
  5
2E5
330
2E3
100
AcDbEntity
  8
0
100
AcDbBlockBegin
  2
*Paper_Space7
 70
     0
 10
0.0
 20
0.0
 30
0.0
  3
*Paper_Space7
  1

  0
LWPOLYLINE
  5
2E8
330
2E3
100
AcDbEntity
  8
0
  6
Continuous
 62
     7
370
    25
100
AcDbPolyline
 90
       45
 70
   128
 43
0.0
 10
-228.0349280399
 20
25.0165969894
 10
-227.1148796776
 20
19.8727360329
 10
-225.9674517346
 20
14.7479453202
 10
-224.5950496279
 20
9.6529682351
 10
-223.0005504004
 20
4.5984856617
 10
-221.1872966895
 20
-0.4049064068
 10
-219.15908972
 20
-5.3467190813
 10
-216.920181335
 20
-10.2165925649
 10
-214.4752650827
 20
-15.0043178707
 10
-211.8294663771
 20
-19.6998582237
 10
-208.9883317533
 20
-24.2933701015
 10
-205.95781724
 20
-28.7752238693
 10
-202.7442758732
 20
-33.1360239678
 10
-199.3544443787
 20
-37.366628609
 10
-195.7954290488
 20
-41.4581689409
 10
-192.0746908455
 20
-45.4020676399
 10
-188.2000297593
 20
-49.1900568917
 10
-184.1795684578
 20
-52.8141957236
 10
-180.0217352579
 20
-56.2668866516
 10
-175.7352464566
 20
-59.5408916076
 10
-171.329088059
 20
-62.6293471129
 10
-166.8124969401
 20
-65.5257786662
 10
-162.1949414813
 20
-68.224114317
 10
-157.486101721
 20
-70.7186973941
 10
-152.695849062
 20
-73.004298364
 10
-147.8342255776
 20
-75.0761257943
 10
-142.9114229596
 20
-76.9298363979
 10
-137.9377611532
 20
-78.5615441381
 10
-132.9236667224
 20
-79.9678283751
 10
-127.8796509923
 20
-81.145741037
 10
-122.8162880138
 20
-82.0928128
 10
-117.7441923966
 20
-82.8070582648
 10
-112.6739970568
 20
-83.2869801188
 10
-107.6163309273
 20
-83.5315722753
 10
-102.5817966749
 20
-83.540321982
 10
-97.580948474
 20
-83.3132108965
 10
-92.624269881
 20
-82.8507151244
 10
-87.722151857
 20
-82.1538042212
 10
-82.8848709848
 20
-81.2239391602
 10
-78.1225679256
 20
-80.0630692691
 10
-73.4452261602
 20
-78.6736281442
 10
-68.8626510606
 20
-77.0585285481
 10
-64.3844493339
 20
-75.2211563041
 10
-60.0200088836
 20
-73.1653631978
 10
-55.7784791291
 20
-70.8954589028
  0
LWPOLYLINE
  5
2E9
330
2E3
100
AcDbEntity
  8
0
  6
Continuous
 62
     7
370
    25
100
AcDbPolyline
 90
       45
 70
   128
 43
0.0
 10
-55.7784791291
 20
77.8233480929
 10
-60.0245535114
 20
81.167540547
 10
-64.3939723663
 20
84.3280687723
 10
-68.8775427986
 20
87.2982832789
 10
-73.4658317471
 20
90.0719349816
 10
-78.149185832
 20
92.6431883467
 10
-82.9177516639
 20
95.0066336702
 10
-87.7614965752
 20
97.1572984587
 10
-92.6702297277
 20
99.0906578917
 10
-97.6336235534
 20
100.8026443409
 10
-102.6412354825
 20
102.2896559287
 10
-107.6825299142
 20
103.5485641057
 10
-112.7469003825
 20
104.5767202335
 10
-117.8236918712
 20
105.3719611566
 10
-122.9022232315
 20
105.932613754
 10
-127.9718096537
 20
106.257498459
 10
-133.021785148
 20
106.3459317412
 10
-138.041524984
 20
106.1977275443
 10
-143.0204680446
 20
105.8131976775
 10
-147.9481390461
 20
105.19315116
 10
-152.8141705766
 20
104.3388925181
 10
-157.6083249087
 20
103.2522190414
 10
-162.3205155386
 20
101.935417001
 10
-166.9408284075
 20
100.3912568392
 10
-171.4595427597
 20
98.6229873411
 10
-175.8671515942
 20
96.6343287994
 10
-180.1543816672
 20
94.429465187
 10
-184.3122130014
 20
92.0130353544
 10
-188.3318978641
 20
89.3901232698
 10
-192.2049791711
 20
86.5662473231
 10
-195.92330828
 20
83.5473487155
 10
-199.4790621344
 20
80.3397789596
 10
-202.8647597225
 20
76.9502865166
 10
-206.0732778169
 20
73.386002598
 10
-209.0978659613
 20
69.654426162
 10
-211.9321606726
 20
65.7634081364
 10
-214.5701988294
 20
61.721134901
 10
-217.006430218
 20
57.536111064
 10
-219.2357292091
 20
53.2171415689
 10
-221.2534055422
 20
48.7733131701
 10
-223.0552141936
 20
44.2139753144
 10
-224.6373643069
 20
39.5487204712
 10
-225.9965271692
 20
34.7873639504
 10
-227.1298432146
 20
29.9399232519
 10
-228.0349280399
 20
25.0165969894
  0
LWPOLYLINE
  5
2FB
330
2E3
100
AcDbEntity
  8
0
  6
Continuous
 62
     7
370
    25
100
AcDbPolyline
 90
       17
 70
   128
 43
0.0
 10
1.8220787476
 20
46.5254193477
 10
1.9324452225
 20
45.9522785087
 10
2.2467423519
 20
45.4385834292
 10
2.717121247
 20
45.0625395285
 10
3.271970985
 20
44.8813960815
 10
3.826820723
 20
44.922730536
 10
4.2971996181
 20
45.180250096
 10
4.6114967475
 20
45.6147497429
 10
4.7218632224
 20
46.1600808443
 10
4.6114967475
 20
46.7332216833
 10
4.2971996181
 20
47.2469167627
 10
3.826820723
 20
47.6229606635
 10
3.271970985
 20
47.8041041105
 10
2.717121247
 20
47.762769656
 10
2.2467423519
 20
47.505250096
 10
1.9324452225
 20
47.070750449
 10
1.8220787476
 20
46.5254193477
  0
LWPOLYLINE
  5
2FC
330
2E3
100
AcDbEntity
  8
0
  6
Continuous
 62
     7
370
    25
100
AcDbPolyline
 90
       17
 70
   128
 43
0.0
 10
1.8068327232
 20
42.7561353067
 10
1.9171991981
 20
42.1829944677
 10
2.2314963276
 20
41.6692993883
 10
2.7018752226
 20
41.2932554875
 10
3.2567249606
 20
41.1121120405
 10
3.8115746986
 20
41.153446495
 10
4.2819535937
 20
41.410966055
 10
4.5962507231
 20
41.845465702
 10
4.706617198
 20
42.3907968033
 10
4.5962507231
 20
42.9639376423
 10
4.2819535937
 20
43.4776327218
 10
3.8115746986
 20
43.8536766225
 10
3.2567249606
 20
44.0348200695
 10
2.7018752226
 20
43.993485615
 10
2.2314963276
 20
43.735966055
 10
1.9171991981
 20
43.3014664081
 10
1.8068327232
 20
42.7561353067
  0
LWPOLYLINE
  5
2FD
330
2E3
100
AcDbEntity
  8
0
  6
Continuous
 62
     7
370
    25
100
AcDbPolyline
 90
       17
 70
   128
 43
0.0
 10
1.7915866988
 20
38.9868512658
 10
1.9019531737
 20
38.4137104268
 10
2.2162503032
 20
37.9000153473
 10
2.6866291983
 20
37.5239714465
 10
3.2414789362
 20
37.3428279995
 10
3.7963286742
 20
37.3841624541
 10
4.2667075693
 20
37.6416820141
 10
4.5810046987
 20
38.076181661
 10
4.6913711737
 20
38.6215127623
 10
4.5810046987
 20
39.1946536013
 10
4.2667075693
 20
39.7083486808
 10
3.7963286742
 20
40.0843925816
 10
3.2414789362
 20
40.2655360285
 10
2.6866291983
 20
40.224201574
 10
2.2162503032
 20
39.966682014
 10
1.9019531737
 20
39.5321823671
 10
1.7915866988
 20
38.9868512658
  0
LWPOLYLINE
  5
2FE
330
2E3
100
AcDbEntity
  8
0
  6
Continuous
 62
     7
370
    25
100
AcDbPolyline
 90
       17
 70
   128
 43
0.0
 10
1.7763406744
 20
35.2175672248
 10
1.8867071493
 20
34.6444263858
 10
2.2010042788
 20
34.1307313063
 10
2.6713831739
 20
33.7546874056
 10
3.2262329118
 20
33.5735439586
 10
3.7810826498
 20
33.6148784131
 10
4.2514615449
 20
33.8723979731
 10
4.5657586743
 20
34.30689762
 10
4.6761251493
 20
34.8522287214
 10
4.5657586743
 20
35.4253695604
 10
4.2514615449
 20
35.9390646398
 10
3.7810826498
 20
36.3151085406
 10
3.2262329118
 20
36.4962519876
 10
2.6713831739
 20
36.4549175331
 10
2.2010042788
 20
36.197397973
 10
1.8867071493
 20
35.7628983261
 10
1.7763406744
 20
35.2175672248
  0
LWPOLYLINE
  5
2FF
330
2E3
100
AcDbEntity
  8
0
  6
Continuous
 62
     7
370
    25
100
AcDbPolyline
 90
       17
 70
   128
 43
0.0
 10
1.6185991453
 20
-50.3421742043
 10
1.7289656202
 20
-50.9153150433
 10
2.0432627497
 20
-51.4290101228
 10
2.5136416448
 20
-51.8050540235
 10
3.0684913828
 20
-51.9861974705
 10
3.6233411207
 20
-51.944863016
 10
4.0937200158
 20
-51.687343456
 10
4.4080171453
 20
-51.2528438091
 10
4.5183836202
 20
-50.7075127077
 10
4.4080171453
 20
-50.1343718687
 10
4.0937200158
 20
-49.6206767893
 10
3.6233411207
 20
-49.2446328885
 10
3.0684913828
 20
-49.0634894415
 10
2.5136416448
 20
-49.104823896
 10
2.0432627497
 20
-49.362343456
 10
1.7289656202
 20
-49.796843103
 10
1.6185991453
 20
-50.3421742043
  0
LWPOLYLINE
  5
300
330
2E3
100
AcDbEntity
  8
0
  6
Continuous
 62
     7
370
    25
100
AcDbPolyline
 90
       17
 70
   128
 43
0.0
 10
1.6185991453
 20
-46.5709380379
 10
1.7289656202
 20
-47.1440788769
 10
2.0432627497
 20
-47.6577739563
 10
2.5136416448
 20
-48.0338178571
 10
3.0684913828
 20
-48.2149613041
 10
3.6233411207
 20
-48.1736268496
 10
4.0937200158
 20
-47.9161072895
 10
4.4080171453
 20
-47.4816076426
 10
4.5183836202
 20
-46.9362765413
 10
4.4080171453
 20
-46.3631357023
 10
4.0937200158
 20
-45.8494406228
 10
3.6233411207
 20
-45.4733967221
 10
3.0684913828
 20
-45.2922532751
 10
2.5136416448
 20
-45.3335877296
 10
2.0432627497
 20
-45.5911072896
 10
1.7289656202
 20
-46.0256069365
 10
1.6185991453
 20
-46.5709380379
  0
LWPOLYLINE
  5
301
330
2E3
100
AcDbEntity
  8
0
  6
Continuous
 62
     7
370
    25
100
AcDbPolyline
 90
       17
 70
   128
 43
0.0
 10
1.6185991453
 20
-42.7997018714
 10
1.7289656202
 20
-43.3728427104
 10
2.0432627497
 20
-43.8865377899
 10
2.5136416448
 20
-44.2625816906
 10
3.0684913828
 20
-44.4437251376
 10
3.6233411207
 20
-44.4023906831
 10
4.0937200158
 20
-44.1448711231
 10
4.4080171453
 20
-43.7103714762
 10
4.5183836202
 20
-43.1650403749
 10
4.4080171453
 20
-42.5918995359
 10
4.0937200158
 20
-42.0782044564
 10
3.6233411207
 20
-41.7021605556
 10
3.0684913828
 20
-41.5210171086
 10
2.5136416448
 20
-41.5623515632
 10
2.0432627497
 20
-41.8198711232
 10
1.7289656202
 20
-42.2543707701
 10
1.6185991453
 20
-42.7997018714
  0
LWPOLYLINE
  5
302
330
2E3
100
AcDbEntity
  8
0
  6
Continuous
 62
     7
370
    25
100
AcDbPolyline
 90
       17
 70
   128
 43
0.0
 10
1.6185991453
 20
-54.1134103707
 10
1.7289656202
 20
-54.6865512097
 10
2.0432627497
 20
-55.2002462892
 10
2.5136416448
 20
-55.57629019
 10
3.0684913828
 20
-55.757433637
 10
3.6233411207
 20
-55.7160991824
 10
4.0937200158
 20
-55.4585796224
 10
4.4080171453
 20
-55.0240799755
 10
4.5183836202
 20
-54.4787488742
 10
4.4080171453
 20
-53.9056080352
 10
4.0937200158
 20
-53.3919129557
 10
3.6233411207
 20
-53.0158690549
 10
3.0684913828
 20
-52.834725608
 10
2.5136416448
 20
-52.8760600625
 10
2.0432627497
 20
-53.1335796225
 10
1.7289656202
 20
-53.5680792694
 10
1.6185991453
 20
-54.1134103707
  0
LWPOLYLINE
  5
312
330
2E3
100
AcDbEntity
  8
0
  6
Continuous
 62
     7
370
    25
100
AcDbPolyline
 90
        3
 70
   128
 43
0.0
 10
4.5659177898
 20
46.8390315863
 10
4.1948215337
 20
47.156627779
 10
3.9261033619
 20
47.5645129554
  0
LWPOLYLINE
  5
313
330
2E3
100
AcDbEntity
  8
0
  6
Continuous
 62
     7
370
    25
100
AcDbPolyline
 90
        3
 70
   128
 43
0.0
 10
4.5506717654
 20
43.0697475453
 10
4.1795755093
 20
43.387343738
 10
3.9108573375
 20
43.7952289145
  0
LWPOLYLINE
  5
31E
330
2E3
100
AcDbEntity
  8
0
  6
Continuous
 62
     7
370
    25
100
AcDbPolyline
 90
        3
 70
   128
 43
0.0
 10
4.535425741
 20
39.3004635043
 10
4.1643294849
 20
39.618059697
 10
3.8956113131
 20
40.0259448735
  0
LWPOLYLINE
  5
31F
330
2E3
100
AcDbEntity
  8
0
  6
Continuous
 62
     7
370
    25
100
AcDbPolyline
 90
        3
 70
   128
 43
0.0
 10
4.5201797166
 20
35.5311794634
 10
4.1490834605
 20
35.8487756561
 10
3.8803652888
 20
36.2566608325
  0
LWPOLYLINE
  5
320
330
2E3
100
AcDbEntity
  8
0
  6
Continuous
 62
     7
370
    25
100
AcDbPolyline
 90
       32
 70
   128
 43
0.0
 10
-52.2394096901
 20
80.9445139624
 10
-56.4854840723
 20
84.2887064165
 10
-60.8549029273
 20
87.4492346418
 10
-65.3384733596
 20
90.4194491484
 10
-69.9267623081
 20
93.1931008511
 10
-74.6101163929
 20
95.7643542162
 10
-79.3786822248
 20
98.1277995397
 10
-84.2224271362
 20
100.2784643282
 10
-89.1311602887
 20
102.2118237612
 10
-94.0945541144
 20
103.9238102104
 10
-99.1021660435
 20
105.4108217982
 10
-104.1434604752
 20
106.6697299752
 10
-109.2078309435
 20
107.697886103
 10
-114.2846224322
 20
108.4931270261
 10
-119.3631537924
 20
109.0537796235
 10
-124.4327402147
 20
109.3786643285
 10
-129.482715709
 20
109.4670976107
 10
-134.5024555449
 20
109.3188934138
 10
-139.4813986056
 20
108.934363547
 10
-144.4090696071
 20
108.3143170294
 10
-149.2751011376
 20
107.4600583876
 10
-154.0692554697
 20
106.3733849109
 10
-158.7814460996
 20
105.0565828705
 10
-163.4017589685
 20
103.5124227086
 10
-167.9204733206
 20
101.7441532106
 10
-172.3280821552
 20
99.7554946689
 10
-176.6153122281
 20
97.5506310565
 10
-180.7731435624
 20
95.1342012239
 10
-184.792828425
 20
92.5112891393
 10
-188.665909732
 20
89.6874131926
 10
-192.384238841
 20
86.6685145849
 10
-193.4114122687
 20
85.7760394947
  0
LWPOLYLINE
  5
32E
330
2E3
100
AcDbEntity
  8
0
  6
Continuous
 62
     7
370
    25
100
AcDbPolyline
 90
        3
 70
   128
 43
0.0
 10
4.3624381876
 20
-42.4860896329
 10
3.9913419314
 20
-42.1684934402
 10
3.7226237597
 20
-41.7606082637
  0
LWPOLYLINE
  5
332
330
2E3
100
AcDbEntity
  8
0
  6
Continuous
 62
     7
370
    25
100
AcDbPolyline
 90
        3
 70
   128
 43
0.0
 10
4.3624381876
 20
-46.2573257993
 10
3.9913419314
 20
-45.9397296066
 10
3.7226237597
 20
-45.5318444301
  0
LWPOLYLINE
  5
333
330
2E3
100
AcDbEntity
  8
0
  6
Continuous
 62
     7
370
    25
100
AcDbPolyline
 90
        3
 70
   128
 43
0.0
 10
4.3624381876
 20
-50.0285619657
 10
3.9913419314
 20
-49.710965773
 10
3.7226237597
 20
-49.3030805966
  0
LWPOLYLINE
  5
334
330
2E3
100
AcDbEntity
  8
0
  6
Continuous
 62
     7
370
    25
100
AcDbPolyline
 90
        3
 70
   128
 43
0.0
 10
4.3624381876
 20
-53.7997981322
 10
3.9913419314
 20
-53.4822019395
 10
3.7226237597
 20
-53.074316763
  0
LINE
  5
338
330
2E3
100
AcDbEntity
  8
0
  6
Continuous
 62
     7
370
    25
100
AcDbLine
 10
-193.4114122687
 20
85.7760394947
 30
0.0
 11
-196.9504817077
 21
82.6548736252
 31
0.0
  0
LINE
  5
339
330
2E3
100
AcDbEntity
  8
0
  6
Continuous
 62
     7
370
    25
100
AcDbLine
 10
27.4546894424
 20
67.3369545328
 30
0.0
 11
-55.7784791291
 21
77.8233480929
 31
0.0
  0
LINE
  5
33A
330
2E3
100
AcDbEntity
  8
0
  6
Continuous
 62
     7
370
    25
100
AcDbLine
 10
52.5893268983
 20
38.8369545335
 30
0.0
 11
27.4546894424
 21
67.3369545328
 31
0.0
  0
LINE
  5
33B
330
2E3
100
AcDbEntity
  8
0
  6
Continuous
 62
     7
370
    25
100
AcDbLine
 10
52.5893268983
 20
24.6948189093
 30
0.0
 11
52.5893268983
 21
38.8369545335
 31
0.0
  0
LINE
  5
33C
330
2E3
100
AcDbEntity
  8
0
  6
Continuous
 62
     7
370
    25
100
AcDbLine
 10
-3.5355339051
 20
31.7658867179
 30
0.0
 11
52.5893268983
 21
24.6948189093
 31
0.0
  0
LINE
  5
33D
330
2E3
100
AcDbEntity
  8
0
  6
Continuous
 62
     7
370
    25
100
AcDbLine
 10
-3.5355339051
 20
-38.0019823612
 30
0.0
 11
-3.5355339051
 21
31.7658867179
 31
0.0
  0
LINE
  5
33E
330
2E3
100
AcDbEntity
  8
0
  6
Continuous
 62
     7
370
    25
100
AcDbLine
 10
9.7695464432
 20
-39.6782649211
 30
0.0
 11
-3.5355339051
 21
-38.0019823612
 31
0.0
  0
LINE
  5
33F
330
2E3
100
AcDbEntity
  8
0
  6
Continuous
 62
     7
370
    25
100
AcDbLine
 10
-55.7784791291
 20
-70.8954589028
 30
0.0
 11
9.7695464432
 21
-79.1537338794
 31
0.0
  0
LINE
  5
340
330
2E3
100
AcDbEntity
  8
0
  6
Continuous
 62
     7
370
    25
100
AcDbLine
 10
-56.5964908044
 20
23.9316796777
 30
0.0
 11
-56.5964908044
 21
68.62082825
 31
0.0
  0
LINE
  5
341
330
2E3
100
AcDbEntity
  8
0
  6
Continuous
 62
     7
370
    25
100
AcDbLine
 10
-56.5964908044
 20
68.62082825
 30
0.0
 11
-100.9351308391
 21
74.2069718188
 31
0.0
  0
LINE
  5
342
330
2E3
100
AcDbEntity
  8
0
  6
Continuous
 62
     7
370
    25
100
AcDbLine
 10
-100.9351308391
 20
74.2069718188
 30
0.0
 11
-100.9351308391
 21
29.5178232465
 31
0.0
  0
LINE
  5
343
330
2E3
100
AcDbEntity
  8
0
  6
Continuous
 62
     7
370
    25
100
AcDbLine
 10
-100.9351308391
 20
29.5178232465
 30
0.0
 11
-56.5964908044
 21
23.9316796777
 31
0.0
  0
LINE
  5
344
330
2E3
100
AcDbEntity
  8
0
  6
Continuous
 62
     7
370
    25
100
AcDbLine
 10
-45.0801793367
 20
-44.0286084068
 30
0.0
 11
-45.0801793367
 21
10.6543160066
 31
0.0
  0
LINE
  5
345
330
2E3
100
AcDbEntity
  8
0
  6
Continuous
 62
     7
370
    25
100
AcDbLine
 10
-45.0801793367
 20
10.6543160066
 30
0.0
 11
-203.1652039331
 21
30.5711570007
 31
0.0
  0
LINE
  5
346
330
2E3
100
AcDbEntity
  8
0
  6
Continuous
 62
     7
370
    25
100
AcDbLine
 10
-203.1652039331
 20
30.5711570007
 30
0.0
 11
-203.1652039331
 21
-24.1117674127
 31
0.0
  0
LINE
  5
347
330
2E3
100
AcDbEntity
  8
0
  6
Continuous
 62
     7
370
    25
100
AcDbLine
 10
-203.1652039331
 20
-24.1117674127
 30
0.0
 11
-45.0801793367
 21
-44.0286084068
 31
0.0
  0
LINE
  5
348
330
2E3
100
AcDbEntity
  8
0
  6
Continuous
 62
     7
370
    25
100
AcDbLine
 10
-30.9462662785
 20
-11.5072200723
 30
0.0
 11
-30.9462662785
 21
-13.8736707667
 31
0.0
  0
LINE
  5
349
330
2E3
100
AcDbEntity
  8
0
  6
Continuous
 62
     7
370
    25
100
AcDbLine
 10
-30.9462662785
 20
-13.8736707667
 30
0.0
 11
-14.1088080375
 21
-15.9949911093
 31
0.0
  0
LINE
  5
34A
330
2E3
100
AcDbEntity
  8
0
  6
Continuous
 62
     7
370
    25
100
AcDbLine
 10
-14.1088080375
 20
-15.9949911093
 30
0.0
 11
-14.1088080375
 21
-13.6285404148
 31
0.0
  0
LINE
  5
34B
330
2E3
100
AcDbEntity
  8
0
  6
Continuous
 62
     7
370
    25
100
AcDbLine
 10
-14.1088080375
 20
-13.6285404148
 30
0.0
 11
-30.9462662785
 21
-11.5072200723
 31
0.0
  0
LINE
  5
34C
330
2E3
100
AcDbEntity
  8
0
  6
Continuous
 62
     7
370
    25
100
AcDbLine
 10
-14.0293588479
 20
16.1034625192
 30
0.0
 11
-30.8666076376
 21
18.3094037912
 31
0.0
  0
LINE
  5
34D
330
2E3
100
AcDbEntity
  8
0
  6
Continuous
 62
     7
370
    25
100
AcDbLine
 10
-30.8666076376
 20
18.3094037912
 30
0.0
 11
-30.8783186571
 21
15.9444579842
 31
0.0
  0
LINE
  5
34E
330
2E3
100
AcDbEntity
  8
0
  6
Continuous
 62
     7
370
    25
100
AcDbLine
 10
-30.8783186571
 20
15.9444579842
 30
0.0
 11
-14.0410698674
 21
13.7385167122
 31
0.0
  0
LINE
  5
34F
330
2E3
100
AcDbEntity
  8
0
  6
Continuous
 62
     7
370
    25
100
AcDbLine
 10
-14.0410698674
 20
13.7385167122
 30
0.0
 11
-14.0293588479
 21
16.1034625192
 31
0.0
  0
LINE
  5
350
330
2E3
100
AcDbEntity
  8
0
  6
Continuous
 62
     7
370
    25
100
AcDbLine
 10
56.1283963374
 20
41.958120403
 30
0.0
 11
30.9937588814
 21
70.4581204023
 31
0.0
  0
LINE
  5
351
330
2E3
100
AcDbEntity
  8
0
  6
Continuous
 62
     7
370
    25
100
AcDbLine
 10
56.1283963374
 20
41.958120403
 30
0.0
 11
52.5893268983
 21
38.8369545335
 31
0.0
  0
LINE
  5
352
330
2E3
100
AcDbEntity
  8
0
  6
Continuous
 62
     7
370
    25
100
AcDbLine
 10
30.9937588814
 20
70.4581204023
 30
0.0
 11
27.4546894424
 21
67.3369545328
 31
0.0
  0
LINE
  5
353
330
2E3
100
AcDbEntity
  8
0
  6
Continuous
 62
     7
370
    25
100
AcDbLine
 10
56.1283963374
 20
27.8159847788
 30
0.0
 11
52.5893268983
 21
24.6948189093
 31
0.0
  0
LINE
  5
354
330
2E3
100
AcDbEntity
  8
0
  6
Continuous
 62
     7
370
    25
100
AcDbLine
 10
56.1283963374
 20
27.8159847788
 30
0.0
 11
56.1283963374
 21
41.958120403
 31
0.0
  0
LINE
  5
355
330
2E3
100
AcDbEntity
  8
0
  6
Continuous
 62
     7
370
    25
100
AcDbLine
 10
-52.2394096901
 20
80.9445139624
 30
0.0
 11
-55.7784791291
 21
77.8233480929
 31
0.0
  0
LINE
  5
356
330
2E3
100
AcDbEntity
  8
0
  6
Continuous
 62
     7
370
    25
100
AcDbLine
 10
30.9937588814
 20
70.4581204023
 30
0.0
 11
-52.2394096901
 21
80.9445139624
 31
0.0
  0
LINE
  5
357
330
2E3
100
AcDbEntity
  8
0
  6
Continuous
 62
     7
370
    25
100
AcDbLine
 10
14.2154774882
 20
29.5267463909
 30
0.0
 11
14.2154774882
 21
-79.7165916465
 31
0.0
  0
LINE
  5
358
330
2E3
100
AcDbEntity
  8
0
  6
Continuous
 62
     7
370
    25
100
AcDbLine
 10
14.2154774882
 20
-79.7165916465
 30
0.0
 11
9.7695464432
 21
-79.1564569853
 31
0.0
  0
LINE
  5
359
330
2E3
100
AcDbEntity
  8
0
  6
Continuous
 62
     7
370
    25
100
AcDbLine
 10
9.7695464432
 20
30.0868810521
 30
0.0
 11
9.7695464432
 21
-79.1564569853
 31
0.0
  0
LINE
  5
35A
330
2E3
100
AcDbEntity
  8
0
  6
Continuous
 62
     7
370
    25
100
AcDbLine
 10
9.7695464432
 20
30.0868810521
 30
0.0
 11
14.2154774882
 21
29.5267463909
 31
0.0
  0
LINE
  5
35B
330
2E3
100
AcDbEntity
  8
0
  6
Continuous
 62
     7
370
    25
100
AcDbLine
 10
14.218179236
 20
-79.7142089288
 30
0.0
 11
14.2154774882
 21
-79.7165916465
 31
0.0
  0
LINE
  5
35C
330
2E3
100
AcDbEntity
  8
0
  6
Continuous
 62
     7
370
    25
100
AcDbLine
 10
14.2154774882
 20
29.5267463909
 30
0.0
 11
14.218179236
 21
29.5291291086
 31
0.0
  0
LINE
  5
35D
330
2E3
100
AcDbEntity
  8
0
  6
Continuous
 62
     7
370
    25
100
AcDbLine
 10
17.7325713733
 20
29.0863573181
 30
0.0
 11
17.7325713733
 21
-37.1393374356
 31
0.0
  0
LINE
  5
35E
330
2E3
100
AcDbEntity
  8
0
  6
Continuous
 62
     7
370
    25
100
AcDbLine
 10
14.218179236
 20
-40.2387399706
 30
0.0
 11
17.7325713733
 21
-37.1393374356
 31
0.0
  0
LINE
  5
35F
330
2E3
100
AcDbEntity
  8
0
  6
Continuous
 62
     7
370
    25
100
AcDbLine
 10
14.218179236
 20
-40.2387399706
 30
0.0
 11
14.218179236
 21
-79.7142089288
 31
0.0
  0
LINE
  5
360
330
2E3
100
AcDbEntity
  8
0
  6
Continuous
 62
     7
370
    25
100
AcDbLine
 10
9.772248191
 20
30.0892637698
 30
0.0
 11
9.7695464432
 21
30.0868810521
 31
0.0
  0
LINE
  5
361
330
2E3
100
AcDbEntity
  8
0
  6
Continuous
 62
     7
370
    25
100
AcDbLine
 10
-1.5874547234
 20
-36.2839380115
 30
0.0
 11
-3.5355339051
 21
-38.0019823612
 31
0.0
  0
LINE
  5
362
330
2E3
100
AcDbEntity
  8
0
  6
Continuous
 62
     7
370
    25
100
AcDbLine
 10
0.0035355339
 20
-36.4843839428
 30
0.0
 11
0.0035355339
 21
31.3200058796
 31
0.0
  0
LINE
  5
363
330
2E3
100
AcDbEntity
  8
0
  6
Continuous
 62
     7
370
    25
100
AcDbLine
 10
52.5893268983
 20
-59.215185794
 30
0.0
 11
52.5893268983
 21
-45.0730501698
 31
0.0
  0
LINE
  5
364
330
2E3
100
AcDbEntity
  8
0
  6
Continuous
 62
     7
370
    25
100
AcDbLine
 10
27.4546894424
 20
-81.3818524629
 30
0.0
 11
56.1283963374
 21
-56.0940199245
 31
0.0
  0
LINE
  5
365
330
2E3
100
AcDbEntity
  8
0
  6
Continuous
 62
     7
370
    25
100
AcDbLine
 10
14.218179236
 20
-79.7142089288
 30
0.0
 11
27.4546894424
 21
-81.3818524629
 31
0.0
  0
LINE
  5
366
330
2E3
100
AcDbEntity
  8
0
  6
Continuous
 62
     7
370
    25
100
AcDbLine
 10
52.5893268983
 20
-45.0730501698
 30
0.0
 11
14.218179236
 21
-40.2387399706
 31
0.0
  0
LINE
  5
367
330
2E3
100
AcDbEntity
  8
0
  6
Continuous
 62
     7
370
    25
100
AcDbLine
 10
56.1283963374
 20
-41.9518843003
 30
0.0
 11
52.5893268983
 21
-45.0730501698
 31
0.0
  0
LINE
  5
368
330
2E3
100
AcDbEntity
  8
0
  6
Continuous
 62
     7
370
    25
100
AcDbLine
 10
56.1283963374
 20
-56.0940199245
 30
0.0
 11
56.1283963374
 21
-41.9518843003
 31
0.0
  0
LINE
  5
369
330
2E3
100
AcDbEntity
  8
0
  6
Continuous
 62
     7
370
    25
100
AcDbLine
 10
-1.5874547234
 20
-36.2839380115
 30
0.0
 11
9.7695464432
 21
-37.7147856644
 31
0.0
  0
LINE
  5
36A
330
2E3
100
AcDbEntity
  8
0
  6
Continuous
 62
     7
370
    25
100
AcDbLine
 10
56.1283963374
 20
-41.9518843003
 30
0.0
 11
17.7325713733
 21
-37.1144650533
 31
0.0
  0
LINE
  5
36B
330
2E3
100
AcDbEntity
  8
0
  6
Continuous
 62
     7
370
    25
100
AcDbLine
 10
-30.8783186571
 20
15.9444579842
 30
0.0
 11
-28.5420526249
 21
18.0048509569
 31
0.0
  0
LINE
  5
36C
330
2E3
100
AcDbEntity
  8
0
  6
Continuous
 62
     7
370
    25
100
AcDbLine
 10
-30.9462662785
 20
-13.8736707667
 30
0.0
 11
-28.5983762681
 21
-11.8030264089
 31
0.0
  0
LINE
  5
36D
330
2E3
100
AcDbEntity
  8
0
  6
Continuous
 62
     7
370
    25
100
AcDbLine
 10
-97.3960614001
 20
32.638989116
 30
0.0
 11
-100.9351308391
 21
29.5178232465
 31
0.0
  0
LINE
  5
36E
330
2E3
100
AcDbEntity
  8
0
  6
Continuous
 62
     7
370
    25
100
AcDbLine
 10
-97.3960614001
 20
32.638989116
 30
0.0
 11
-56.5964908044
 21
27.4987263855
 31
0.0
  0
LINE
  5
36F
330
2E3
100
AcDbEntity
  8
0
  6
Continuous
 62
     7
370
    25
100
AcDbLine
 10
-97.3960614001
 20
73.7610909805
 30
0.0
 11
-97.3960614001
 21
32.638989116
 31
0.0
  0
LINE
  5
370
330
2E3
100
AcDbEntity
  8
0
  6
Continuous
 62
     7
370
    25
100
AcDbLine
 10
-199.6261344941
 20
-20.9906015432
 30
0.0
 11
-203.1652039331
 21
-24.1117674127
 31
0.0
  0
LINE
  5
371
330
2E3
100
AcDbEntity
  8
0
  6
Continuous
 62
     7
370
    25
100
AcDbLine
 10
-199.6261344941
 20
-20.9906015432
 30
0.0
 11
-45.0801793367
 21
-40.461561699
 31
0.0
  0
LINE
  5
372
330
2E3
100
AcDbEntity
  8
0
  6
Continuous
 62
     7
370
    25
100
AcDbLine
 10
-199.6261344941
 20
30.1252761625
 30
0.0
 11
-199.6261344941
 21
-20.9906015432
 31
0.0
  0
VIEWPORT
  5
383
330
2E3
100
AcDbEntity
  8
0
100
AcDbViewport
 10
0.0
 20
0.0
 30
0.0
 40
205.6
 41
156.0
 68
     1
 69
     1
 12
-89.9999737662
 22
0.0066187146
 13
0.0
 23
0.0
 14
10.0
 24
10.0
 15
10.0
 25
10.0
 16
0.0
 26
0.0
 36
1.0
 17
0.0
 27
0.0
 37
0.0
 42
50.0
 43
0.0
 44
0.0
 45
232.1789477205
 50
0.0
 51
0.0
 72
   100
 90
   557152
  1

281
     0
 71
     1
 74
     0
110
0.0
120
0.0
130
0.0
111
1.0
121
0.0
131
0.0
112
0.0
122
1.0
132
0.0
 79
     0
146
0.0
  0
MTEXT
  5
398
330
2E3
100
AcDbEntity
  8
0
  6
Continuous
 62
     7
100
AcDbMText
 10
-228.0349280399
 20
-84.5598883737
 30
0.0
 40
4.83362
 41
0.0
 71
     1
 72
     1
  1
SOLIDWORKS Educational Product.
  7
SLDTEXTSTYLE0
 73
     1
 44
1.0
  0
MTEXT
  5
399
330
2E3
100
AcDbEntity
  8
0
  6
Continuous
 62
     7
100
AcDbMText
 10
-228.0349280399
 20
-91.8103183737
 30
0.0
 40
4.83362
 41
0.0
 71
     1
 72
     1
  1
For Instructional Use Only.
  7
SLDTEXTSTYLE0
 73
     1
 44
1.0
  0
ENDBLK
  5
2E6
330
2E3
100
AcDbEntity
  8
0
100
AcDbBlockEnd
  0
ENDSEC
  0
SECTION
  2
ENTITIES
  0
CIRCLE
  5
88
330
1F
100
AcDbEntity
  8
0
  6
Continuous
 62
     7
370
    25
100
AcDbCircle
 10
7.2775288448
 20
53.3707895193
 30
0.0
 40
1.55000000000001
  0
CIRCLE
  5
89
330
1F
100
AcDbEntity
  8
0
  6
Continuous
 62
     7
370
    25
100
AcDbCircle
 10
7.2612301592
 20
49.3708227253
 30
0.0
 40
1.550000000000007
  0
CIRCLE
  5
8A
330
1F
100
AcDbEntity
  8
0
  6
Continuous
 62
     7
370
    25
100
AcDbCircle
 10
7.2449314735
 20
45.3708559314
 30
0.0
 40
1.550000000000006
  0
CIRCLE
  5
8B
330
1F
100
AcDbEntity
  8
0
  6
Continuous
 62
     7
370
    25
100
AcDbCircle
 10
7.2286327879
 20
41.3708891374
 30
0.0
 40
1.550000000000011
  0
CIRCLE
  5
8C
330
1F
100
AcDbEntity
  8
0
  6
Continuous
 62
     7
370
    25
100
AcDbCircle
 10
7.06
 20
-49.4
 30
0.0
 40
1.55000000000001
  0
CIRCLE
  5
8D
330
1F
100
AcDbEntity
  8
0
  6
Continuous
 62
     7
370
    25
100
AcDbCircle
 10
7.06
 20
-45.4
 30
0.0
 40
1.550000000000004
  0
CIRCLE
  5
8E
330
1F
100
AcDbEntity
  8
0
  6
Continuous
 62
     7
370
    25
100
AcDbCircle
 10
7.06
 20
-41.4
 30
0.0
 40
1.549999999999998
  0
CIRCLE
  5
8F
330
1F
100
AcDbEntity
  8
0
  6
Continuous
 62
     7
370
    25
100
AcDbCircle
 10
7.06
 20
-53.4
 30
0.0
 40
1.549999999999992
  0
LINE
  5
9D
330
1F
100
AcDbEntity
  8
0
  6
Continuous
 62
     7
370
    25
100
AcDbLine
 10
-55.8500576851
 20
-78.8700576851
 30
0.0
 11
33.1299423149
 21
-78.8700576851
 31
0.0
  0
LINE
  5
9E
330
1F
100
AcDbEntity
  8
0
  6
Continuous
 62
     7
370
    25
100
AcDbLine
 10
14.22661748
 20
37.0
 30
0.0
 11
14.22661748
 21
-78.8700576851
 31
0.0
  0
LINE
  5
9F
330
1F
100
AcDbEntity
  8
0
  6
Continuous
 62
     7
370
    25
100
AcDbLine
 10
0.0
 20
37.0
 30
0.0
 11
60.0
 21
37.0
 31
0.0
  0
LINE
  5
A0
330
1F
100
AcDbEntity
  8
0
  6
Continuous
 62
     7
370
    25
100
AcDbLine
 10
18.97951769
 20
37.0
 30
0.0
 11
18.97951769
 21
-78.8700576851
 31
0.0
  0
LINE
  5
A1
330
1F
100
AcDbEntity
  8
0
  6
Continuous
 62
     7
370
    25
100
AcDbLine
 10
33.1299423149
 20
78.8700576851
 30
0.0
 11
-55.8500576851
 21
78.8700576851
 31
0.0
  0
LINE
  5
A2
330
1F
100
AcDbEntity
  8
0
  6
Continuous
 62
     7
370
    25
100
AcDbLine
 10
60.0
 20
52.0
 30
0.0
 11
33.1299423149
 21
78.8700576851
 31
0.0
  0
LINE
  5
A3
330
1F
100
AcDbEntity
  8
0
  6
Continuous
 62
     7
370
    25
100
AcDbLine
 10
60.0
 20
37.0
 30
0.0
 11
60.0
 21
52.0
 31
0.0
  0
LINE
  5
A4
330
1F
100
AcDbEntity
  8
0
  6
Continuous
 62
     7
370
    25
100
AcDbLine
 10
0.0
 20
-37.0
 30
0.0
 11
0.0
 21
37.0
 31
0.0
  0
LINE
  5
A5
330
1F
100
AcDbEntity
  8
0
  6
Continuous
 62
     7
370
    25
100
AcDbLine
 10
14.22661748
 20
-37.0
 30
0.0
 11
0.0
 21
-37.0
 31
0.0
  0
LINE
  5
A6
330
1F
100
AcDbEntity
  8
0
  6
Continuous
 62
     7
370
    25
100
AcDbLine
 10
-56.72454895
 20
21.6
 30
0.0
 11
-56.72454895
 21
69.0
 31
0.0
  0
LINE
  5
A7
330
1F
100
AcDbEntity
  8
0
  6
Continuous
 62
     7
370
    25
100
AcDbLine
 10
-56.72454895
 20
69.0
 30
0.0
 11
-104.12454895
 21
69.0
 31
0.0
  0
LINE
  5
A8
330
1F
100
AcDbEntity
  8
0
  6
Continuous
 62
     7
370
    25
100
AcDbLine
 10
-104.12454895
 20
69.0
 30
0.0
 11
-104.12454895
 21
21.6
 31
0.0
  0
LINE
  5
A9
330
1F
100
AcDbEntity
  8
0
  6
Continuous
 62
     7
370
    25
100
AcDbLine
 10
-104.12454895
 20
21.6
 30
0.0
 11
-56.72454895
 21
21.6
 31
0.0
  0
LINE
  5
AA
330
1F
100
AcDbEntity
  8
0
  6
Continuous
 62
     7
370
    25
100
AcDbLine
 10
-44.41309413
 20
-48.94383898
 30
0.0
 11
-44.41309413
 21
9.05616102
 31
0.0
  0
LINE
  5
AB
330
1F
100
AcDbEntity
  8
0
  6
Continuous
 62
     7
370
    25
100
AcDbLine
 10
-44.41309413
 20
9.05616102
 30
0.0
 11
-213.41309413
 21
9.05616102
 31
0.0
  0
LINE
  5
AC
330
1F
100
AcDbEntity
  8
0
  6
Continuous
 62
     7
370
    25
100
AcDbLine
 10
-213.41309413
 20
9.05616102
 30
0.0
 11
-213.41309413
 21
-48.94383898
 31
0.0
  0
LINE
  5
AD
330
1F
100
AcDbEntity
  8
0
  6
Continuous
 62
     7
370
    25
100
AcDbLine
 10
-213.41309413
 20
-48.94383898
 30
0.0
 11
-44.41309413
 21
-48.94383898
 31
0.0
  0
LINE
  5
AE
330
1F
100
AcDbEntity
  8
0
  6
Continuous
 62
     7
370
    25
100
AcDbLine
 10
-29.3033055024
 20
-12.5609740661
 30
0.0
 11
-29.3033055024
 21
-15.0709740661
 31
0.0
  0
LINE
  5
AF
330
1F
100
AcDbEntity
  8
0
  6
Continuous
 62
     7
370
    25
100
AcDbLine
 10
-29.3033055024
 20
-15.0709740661
 30
0.0
 11
-11.3033055024
 21
-15.0709740661
 31
0.0
  0
LINE
  5
B0
330
1F
100
AcDbEntity
  8
0
  6
Continuous
 62
     7
370
    25
100
AcDbLine
 10
-11.3033055024
 20
-15.0709740661
 30
0.0
 11
-11.3033055024
 21
-12.5609740661
 31
0.0
  0
LINE
  5
B1
330
1F
100
AcDbEntity
  8
0
  6
Continuous
 62
     7
370
    25
100
AcDbLine
 10
-11.3033055024
 20
-12.5609740661
 30
0.0
 11
-29.3033055024
 21
-12.5609740661
 31
0.0
  0
LINE
  5
B2
330
1F
100
AcDbEntity
  8
0
  6
Continuous
 62
     7
370
    25
100
AcDbLine
 10
-11.2183707461
 20
18.9851941168
 30
0.0
 11
-29.2181468332
 21
19.0749761555
 31
0.0
  0
LINE
  5
B3
330
1F
100
AcDbEntity
  8
0
  6
Continuous
 62
     7
370
    25
100
AcDbLine
 10
-29.2181468332
 20
19.0749761555
 30
0.0
 11
-29.2306664397
 21
16.5650073789
 31
0.0
  0
LINE
  5
B4
330
1F
100
AcDbEntity
  8
0
  6
Continuous
 62
     7
370
    25
100
AcDbLine
 10
-29.2306664397
 20
16.5650073789
 30
0.0
 11
-11.2308903526
 21
16.4752253402
 31
0.0
  0
LINE
  5
B5
330
1F
100
AcDbEntity
  8
0
  6
Continuous
 62
     7
370
    25
100
AcDbLine
 10
-11.2308903526
 20
16.4752253402
 30
0.0
 11
-11.2183707461
 21
18.9851941168
 31
0.0
  0
LINE
  5
B6
330
1F
100
AcDbEntity
  8
0
  6
Continuous
 62
     7
370
    25
100
AcDbLine
 10
33.1299423149
 20
-78.8700576851
 30
0.0
 11
60.0
 21
-52.0
 31
0.0
  0
LINE
  5
B7
330
1F
100
AcDbEntity
  8
0
  6
Continuous
 62
     7
370
    25
100
AcDbLine
 10
60.0
 20
-52.0
 30
0.0
 11
60.0
 21
-37.0
 31
0.0
  0
LINE
  5
B8
330
1F
100
AcDbEntity
  8
0
  6
Continuous
 62
     7
370
    25
100
AcDbLine
 10
60.0
 20
-37.0
 30
0.0
 11
18.97951769
 21
-37.0
 31
0.0
  0
ARC
  5
B9
330
1F
100
AcDbEntity
  8
0
  6
Continuous
 62
     7
370
    25
100
AcDbCircle
 10
-123.0632457623
 20
18.6511750037
 30
0.0
 40
118.4398728327512
100
AcDbArc
 50
189.1380442746
 51
304.5752306063
  0
ARC
  5
BA
330
1F
100
AcDbEntity
  8
0
  6
Continuous
 62
     7
370
    25
100
AcDbCircle
 10
-123.0632457623
 20
-18.5762688209
 30
0.0
 40
118.378204079178
100
AcDbArc
 50
55.4041950911
 51
171.049421233
  0
MTEXT
  5
388
330
1F
100
AcDbEntity
  8
0
  6
Continuous
 62
     7
100
AcDbMText
 10
-239.9999475323
 20
-100.8082642208
 30
0.0
 40
4.83362
 41
0.0
 71
     1
 72
     1
  1
SOLIDWORKS Educational Product.
  7
SLDTEXTSTYLE0
 73
     1
 44
1.0
  0
MTEXT
  5
389
330
1F
100
AcDbEntity
  8
0
  6
Continuous
 62
     7
100
AcDbMText
 10
-239.9999475323
 20
-108.0586942208
 30
0.0
 40
4.83362
 41
0.0
 71
     1
 72
     1
  1
For Instructional Use Only.
  7
SLDTEXTSTYLE0
 73
     1
 44
1.0
  0
CIRCLE
  5
D0
330
1B
100
AcDbEntity
 67
     1
  8
0
  6
Continuous
 62
     7
370
    25
100
AcDbCircle
 10
7.2775288448
 20
53.3707895193
 30
0.0
 40
1.55000000000001
  0
CIRCLE
  5
D1
330
1B
100
AcDbEntity
 67
     1
  8
0
  6
Continuous
 62
     7
370
    25
100
AcDbCircle
 10
7.2612301592
 20
49.3708227253
 30
0.0
 40
1.550000000000007
  0
CIRCLE
  5
D2
330
1B
100
AcDbEntity
 67
     1
  8
0
  6
Continuous
 62
     7
370
    25
100
AcDbCircle
 10
7.2449314735
 20
45.3708559314
 30
0.0
 40
1.550000000000006
  0
CIRCLE
  5
D3
330
1B
100
AcDbEntity
 67
     1
  8
0
  6
Continuous
 62
     7
370
    25
100
AcDbCircle
 10
7.2286327879
 20
41.3708891374
 30
0.0
 40
1.550000000000011
  0
CIRCLE
  5
D4
330
1B
100
AcDbEntity
 67
     1
  8
0
  6
Continuous
 62
     7
370
    25
100
AcDbCircle
 10
7.06
 20
-49.4
 30
0.0
 40
1.55000000000001
  0
CIRCLE
  5
D5
330
1B
100
AcDbEntity
 67
     1
  8
0
  6
Continuous
 62
     7
370
    25
100
AcDbCircle
 10
7.06
 20
-45.4
 30
0.0
 40
1.550000000000004
  0
CIRCLE
  5
D6
330
1B
100
AcDbEntity
 67
     1
  8
0
  6
Continuous
 62
     7
370
    25
100
AcDbCircle
 10
7.06
 20
-41.4
 30
0.0
 40
1.549999999999998
  0
CIRCLE
  5
D7
330
1B
100
AcDbEntity
 67
     1
  8
0
  6
Continuous
 62
     7
370
    25
100
AcDbCircle
 10
7.06
 20
-53.4
 30
0.0
 40
1.549999999999992
  0
LINE
  5
E5
330
1B
100
AcDbEntity
 67
     1
  8
0
  6
Continuous
 62
     7
370
    25
100
AcDbLine
 10
-55.8500576851
 20
-78.8700576851
 30
0.0
 11
33.1299423149
 21
-78.8700576851
 31
0.0
  0
LINE
  5
E6
330
1B
100
AcDbEntity
 67
     1
  8
0
  6
Continuous
 62
     7
370
    25
100
AcDbLine
 10
14.22661748
 20
37.0
 30
0.0
 11
14.22661748
 21
-78.8700576851
 31
0.0
  0
LINE
  5
E7
330
1B
100
AcDbEntity
 67
     1
  8
0
  6
Continuous
 62
     7
370
    25
100
AcDbLine
 10
0.0
 20
37.0
 30
0.0
 11
60.0
 21
37.0
 31
0.0
  0
LINE
  5
E8
330
1B
100
AcDbEntity
 67
     1
  8
0
  6
Continuous
 62
     7
370
    25
100
AcDbLine
 10
18.97951769
 20
37.0
 30
0.0
 11
18.97951769
 21
-78.8700576851
 31
0.0
  0
LINE
  5
E9
330
1B
100
AcDbEntity
 67
     1
  8
0
  6
Continuous
 62
     7
370
    25
100
AcDbLine
 10
33.1299423149
 20
78.8700576851
 30
0.0
 11
-55.8500576851
 21
78.8700576851
 31
0.0
  0
LINE
  5
EA
330
1B
100
AcDbEntity
 67
     1
  8
0
  6
Continuous
 62
     7
370
    25
100
AcDbLine
 10
60.0
 20
52.0
 30
0.0
 11
33.1299423149
 21
78.8700576851
 31
0.0
  0
LINE
  5
EB
330
1B
100
AcDbEntity
 67
     1
  8
0
  6
Continuous
 62
     7
370
    25
100
AcDbLine
 10
60.0
 20
37.0
 30
0.0
 11
60.0
 21
52.0
 31
0.0
  0
LINE
  5
EC
330
1B
100
AcDbEntity
 67
     1
  8
0
  6
Continuous
 62
     7
370
    25
100
AcDbLine
 10
0.0
 20
-37.0
 30
0.0
 11
0.0
 21
37.0
 31
0.0
  0
LINE
  5
ED
330
1B
100
AcDbEntity
 67
     1
  8
0
  6
Continuous
 62
     7
370
    25
100
AcDbLine
 10
14.22661748
 20
-37.0
 30
0.0
 11
0.0
 21
-37.0
 31
0.0
  0
LINE
  5
EE
330
1B
100
AcDbEntity
 67
     1
  8
0
  6
Continuous
 62
     7
370
    25
100
AcDbLine
 10
-56.72454895
 20
21.6
 30
0.0
 11
-56.72454895
 21
69.0
 31
0.0
  0
LINE
  5
EF
330
1B
100
AcDbEntity
 67
     1
  8
0
  6
Continuous
 62
     7
370
    25
100
AcDbLine
 10
-56.72454895
 20
69.0
 30
0.0
 11
-104.12454895
 21
69.0
 31
0.0
  0
LINE
  5
F0
330
1B
100
AcDbEntity
 67
     1
  8
0
  6
Continuous
 62
     7
370
    25
100
AcDbLine
 10
-104.12454895
 20
69.0
 30
0.0
 11
-104.12454895
 21
21.6
 31
0.0
  0
LINE
  5
F1
330
1B
100
AcDbEntity
 67
     1
  8
0
  6
Continuous
 62
     7
370
    25
100
AcDbLine
 10
-104.12454895
 20
21.6
 30
0.0
 11
-56.72454895
 21
21.6
 31
0.0
  0
LINE
  5
F2
330
1B
100
AcDbEntity
 67
     1
  8
0
  6
Continuous
 62
     7
370
    25
100
AcDbLine
 10
-44.41309413
 20
-48.94383898
 30
0.0
 11
-44.41309413
 21
9.05616102
 31
0.0
  0
LINE
  5
F3
330
1B
100
AcDbEntity
 67
     1
  8
0
  6
Continuous
 62
     7
370
    25
100
AcDbLine
 10
-44.41309413
 20
9.05616102
 30
0.0
 11
-213.41309413
 21
9.05616102
 31
0.0
  0
LINE
  5
F4
330
1B
100
AcDbEntity
 67
     1
  8
0
  6
Continuous
 62
     7
370
    25
100
AcDbLine
 10
-213.41309413
 20
9.05616102
 30
0.0
 11
-213.41309413
 21
-48.94383898
 31
0.0
  0
LINE
  5
F5
330
1B
100
AcDbEntity
 67
     1
  8
0
  6
Continuous
 62
     7
370
    25
100
AcDbLine
 10
-213.41309413
 20
-48.94383898
 30
0.0
 11
-44.41309413
 21
-48.94383898
 31
0.0
  0
LINE
  5
F6
330
1B
100
AcDbEntity
 67
     1
  8
0
  6
Continuous
 62
     7
370
    25
100
AcDbLine
 10
-29.3033055024
 20
-12.5609740661
 30
0.0
 11
-29.3033055024
 21
-15.0709740661
 31
0.0
  0
LINE
  5
F7
330
1B
100
AcDbEntity
 67
     1
  8
0
  6
Continuous
 62
     7
370
    25
100
AcDbLine
 10
-29.3033055024
 20
-15.0709740661
 30
0.0
 11
-11.3033055024
 21
-15.0709740661
 31
0.0
  0
LINE
  5
F8
330
1B
100
AcDbEntity
 67
     1
  8
0
  6
Continuous
 62
     7
370
    25
100
AcDbLine
 10
-11.3033055024
 20
-15.0709740661
 30
0.0
 11
-11.3033055024
 21
-12.5609740661
 31
0.0
  0
LINE
  5
F9
330
1B
100
AcDbEntity
 67
     1
  8
0
  6
Continuous
 62
     7
370
    25
100
AcDbLine
 10
-11.3033055024
 20
-12.5609740661
 30
0.0
 11
-29.3033055024
 21
-12.5609740661
 31
0.0
  0
LINE
  5
FA
330
1B
100
AcDbEntity
 67
     1
  8
0
  6
Continuous
 62
     7
370
    25
100
AcDbLine
 10
-11.2183707461
 20
18.9851941168
 30
0.0
 11
-29.2181468332
 21
19.0749761555
 31
0.0
  0
LINE
  5
FB
330
1B
100
AcDbEntity
 67
     1
  8
0
  6
Continuous
 62
     7
370
    25
100
AcDbLine
 10
-29.2181468332
 20
19.0749761555
 30
0.0
 11
-29.2306664397
 21
16.5650073789
 31
0.0
  0
LINE
  5
FC
330
1B
100
AcDbEntity
 67
     1
  8
0
  6
Continuous
 62
     7
370
    25
100
AcDbLine
 10
-29.2306664397
 20
16.5650073789
 30
0.0
 11
-11.2308903526
 21
16.4752253402
 31
0.0
  0
LINE
  5
FD
330
1B
100
AcDbEntity
 67
     1
  8
0
  6
Continuous
 62
     7
370
    25
100
AcDbLine
 10
-11.2308903526
 20
16.4752253402
 30
0.0
 11
-11.2183707461
 21
18.9851941168
 31
0.0
  0
LINE
  5
FE
330
1B
100
AcDbEntity
 67
     1
  8
0
  6
Continuous
 62
     7
370
    25
100
AcDbLine
 10
33.1299423149
 20
-78.8700576851
 30
0.0
 11
60.0
 21
-52.0
 31
0.0
  0
LINE
  5
FF
330
1B
100
AcDbEntity
 67
     1
  8
0
  6
Continuous
 62
     7
370
    25
100
AcDbLine
 10
60.0
 20
-52.0
 30
0.0
 11
60.0
 21
-37.0
 31
0.0
  0
LINE
  5
100
330
1B
100
AcDbEntity
 67
     1
  8
0
  6
Continuous
 62
     7
370
    25
100
AcDbLine
 10
60.0
 20
-37.0
 30
0.0
 11
18.97951769
 21
-37.0
 31
0.0
  0
ARC
  5
101
330
1B
100
AcDbEntity
 67
     1
  8
0
  6
Continuous
 62
     7
370
    25
100
AcDbCircle
 10
-123.0632457623
 20
18.6511750037
 30
0.0
 40
118.4398728327512
100
AcDbArc
 50
189.1380442746
 51
304.5752306063
  0
ARC
  5
102
330
1B
100
AcDbEntity
 67
     1
  8
0
  6
Continuous
 62
     7
370
    25
100
AcDbCircle
 10
-123.0632457623
 20
-18.5762688209
 30
0.0
 40
118.378204079178
100
AcDbArc
 50
55.4041950911
 51
171.049421233
  0
VIEWPORT
  5
373
330
1B
100
AcDbEntity
 67
     1
  8
0
100
AcDbViewport
 10
0.0
 20
0.0
 30
0.0
 40
205.6
 41
156.0
 68
     1
 69
     1
 12
-89.9999737662
 22
0.0066187146
 13
0.0
 23
0.0
 14
10.0
 24
10.0
 15
10.0
 25
10.0
 16
0.0
 26
0.0
 36
1.0
 17
0.0
 27
0.0
 37
0.0
 42
50.0
 43
0.0
 44
0.0
 45
232.1789477205
 50
0.0
 51
0.0
 72
   100
 90
   557152
  1

281
     0
 71
     1
 74
     0
110
0.0
120
0.0
130
0.0
111
1.0
121
0.0
131
0.0
112
0.0
122
1.0
132
0.0
 79
     0
146
0.0
  0
MTEXT
  5
386
330
1B
100
AcDbEntity
 67
     1
  8
0
  6
Continuous
 62
     7
100
AcDbMText
 10
-239.9999475323
 20
-100.8082642208
 30
0.0
 40
4.83362
 41
0.0
 71
     1
 72
     1
  1
SOLIDWORKS Educational Product.
  7
SLDTEXTSTYLE0
 73
     1
 44
1.0
  0
MTEXT
  5
387
330
1B
100
AcDbEntity
 67
     1
  8
0
  6
Continuous
 62
     7
100
AcDbMText
 10
-239.9999475323
 20
-108.0586942208
 30
0.0
 40
4.83362
 41
0.0
 71
     1
 72
     1
  1
For Instructional Use Only.
  7
SLDTEXTSTYLE0
 73
     1
 44
1.0
  0
ENDSEC
  0
SECTION
  2
OBJECTS
  0
DICTIONARY
  5
C
330
0
100
AcDbDictionary
281
     1
  3
ACAD_GROUP
350
D
  3
ACAD_LAYOUT
350
1A
  3
ACAD_MLINESTYLE
350
17
  3
ACAD_PLOTSETTINGS
350
19
  3
ACAD_PLOTSTYLENAME
350
E
  3
ACAD_SCALELIST
350
47
  3
DWGPROPS
350
39A
  0
DICTIONARY
  5
D
102
{ACAD_REACTORS
330
C
102
}
330
C
100
AcDbDictionary
281
     1
  0
DICTIONARY
  5
1A
102
{ACAD_REACTORS
330
C
102
}
330
C
100
AcDbDictionary
281
     1
  3
_Back
350
144
  3
_Bottom
350
1B2
  3
_Dimetric
350
2E4
  3
_Front
350
1E
  3
_Isometric
350
1CE
  3
_Left
350
19C
  3
_Right
350
11A
  3
_Top
350
26
  3
_Trimetric
350
25B
  3
Model
350
22
  0
DICTIONARY
  5
17
102
{ACAD_REACTORS
330
C
102
}
330
C
100
AcDbDictionary
281
     1
  3
Standard
350
18
  0
DICTIONARY
  5
19
102
{ACAD_REACTORS
330
C
102
}
330
C
100
AcDbDictionary
281
     1
  0
ACDBDICTIONARYWDFLT
  5
E
102
{ACAD_REACTORS
330
C
102
}
330
C
100
AcDbDictionary
281
     1
  3
Normal
350
F
100
AcDbDictionaryWithDefault
340
F
  0
DICTIONARY
  5
47
102
{ACAD_REACTORS
330
C
102
}
330
C
100
AcDbDictionary
281
     1
  3
A0
350
48
  3
A1
350
49
  3
A2
350
4A
  3
A3
350
4B
  3
A4
350
4C
  3
A5
350
4D
  3
A6
350
4E
  3
A7
350
4F
  3
A8
350
50
  3
A9
350
51
  3
B0
350
52
  3
B1
350
53
  3
B2
350
54
  3
B3
350
55
  3
B4
350
56
  3
B5
350
57
  3
B6
350
58
  3
B7
350
59
  3
B8
350
5A
  3
B9
350
5B
  3
C0
350
5C
  3
C1
350
5D
  3
C2
350
5E
  3
C3
350
5F
  3
C4
350
60
  3
C5
350
61
  3
C6
350
62
  3
C7
350
63
  3
C8
350
64
  3
C9
350
65
  3
D0
350
66
  3
D1
350
67
  3
D2
350
68
  0
XRECORD
  5
39A
102
{ACAD_REACTORS
330
C
102
}
330
C
100
AcDbXrecord
280
     1
  1
DWGPROPS COOKIE
  2

  3

  4

  6

  7

  8
jasme
  9

300
=
301
=
302
=
303
=
304
=
305
=
306
=
307
=
308
=
309
=
 40
0.0
 41
2459702.601790764
 42
2459702.601923947
  1

 90
        0
  0
LAYOUT
  5
144
102
{ACAD_REACTORS
330
1A
102
}
330
1A
100
AcDbPlotSettings
  1

  2
none_device
  4
ISO_A4_(210.00_x_297.00_MM)
  6

 40
7.5
 41
20.0
 42
7.5
 43
20.0
 44
210.0
 45
297.0
 46
0.0
 47
0.0
 48
0.0
 49
0.0
140
0.0
141
0.0
142
1.0
143
1.1673149709
 70
   688
 72
     1
 73
     1
 74
     1
  7

 75
     0
147
0.8566668165
148
239.9999475323
149
99.7886978291
100
AcDbLayout
  1
_Back
 70
     1
 71
     4
 10
0.0
 20
0.0
 11
0.0
 21
0.0
 12
0.0
 22
0.0
 32
0.0
 14
0.0
 24
0.0
 34
0.0
 15
0.0
 25
0.0
 35
0.0
146
0.0
 13
0.0
 23
0.0
 33
0.0
 16
1.0
 26
0.0
 36
0.0
 17
0.0
 27
1.0
 37
0.0
 76
     0
330
143
331
379
  0
LAYOUT
  5
1B2
102
{ACAD_REACTORS
330
1A
102
}
330
1A
100
AcDbPlotSettings
  1

  2
none_device
  4
ISO_A4_(210.00_x_297.00_MM)
  6

 40
7.5
 41
20.0
 42
7.5
 43
20.0
 44
210.0
 45
297.0
 46
0.0
 47
0.0
 48
0.0
 49
0.0
140
0.0
141
0.0
142
1.0
143
1.1673149709
 70
   688
 72
     1
 73
     1
 74
     1
  7

 75
     0
147
0.8566668165
148
239.9999475323
149
99.7886978291
100
AcDbLayout
  1
_Bottom
 70
     1
 71
     6
 10
0.0
 20
0.0
 11
0.0
 21
0.0
 12
0.0
 22
0.0
 32
0.0
 14
0.0
 24
0.0
 34
0.0
 15
0.0
 25
0.0
 35
0.0
146
0.0
 13
0.0
 23
0.0
 33
0.0
 16
1.0
 26
0.0
 36
0.0
 17
0.0
 27
1.0
 37
0.0
 76
     0
330
1B1
331
37D
  0
LAYOUT
  5
2E4
102
{ACAD_REACTORS
330
1A
102
}
330
1A
100
AcDbPlotSettings
  1

  2
none_device
  4
ISO_A4_(210.00_x_297.00_MM)
  6

 40
7.5
 41
20.0
 42
7.5
 43
20.0
 44
210.0
 45
297.0
 46
0.0
 47
0.0
 48
0.0
 49
0.0
140
0.0
141
0.0
142
1.0
143
1.1673149709
 70
   688
 72
     1
 73
     1
 74
     1
  7

 75
     0
147
0.8566668165
148
239.9999475323
149
99.7886978291
100
AcDbLayout
  1
_Dimetric
 70
     1
 71
     9
 10
0.0
 20
0.0
 11
0.0
 21
0.0
 12
0.0
 22
0.0
 32
0.0
 14
0.0
 24
0.0
 34
0.0
 15
0.0
 25
0.0
 35
0.0
146
0.0
 13
0.0
 23
0.0
 33
0.0
 16
1.0
 26
0.0
 36
0.0
 17
0.0
 27
1.0
 37
0.0
 76
     0
330
2E3
331
383
  0
LAYOUT
  5
1E
102
{ACAD_REACTORS
330
1A
102
}
330
1A
100
AcDbPlotSettings
  1

  2
none_device
  4
ISO_A4_(210.00_x_297.00_MM)
  6

 40
7.5
 41
20.0
 42
7.5
 43
20.0
 44
210.0
 45
297.0
 46
0.0
 47
0.0
 48
0.0
 49
0.0
140
0.0
141
0.0
142
1.0
143
1.1673149709
 70
   688
 72
     1
 73
     1
 74
     1
  7

 75
     0
147
0.8566668165
148
239.9999475323
149
99.7886978291
100
AcDbLayout
  1
_Front
 70
     1
 71
     1
 10
-263.3462469512
 20
-108.5435601112
 11
83.3462994189
 21
136.5925837868
 12
0.0
 22
0.0
 32
0.0
 14
-239.9999475323
 24
-99.7886978291
 34
0.0
 15
60.0
 25
99.8019352583
 35
0.0
146
0.0
 13
0.0
 23
0.0
 33
0.0
 16
1.0
 26
0.0
 36
0.0
 17
0.0
 27
1.0
 37
0.0
 76
     0
330
1B
331
373
  0
LAYOUT
  5
1CE
102
{ACAD_REACTORS
330
1A
102
}
330
1A
100
AcDbPlotSettings
  1

  2
none_device
  4
ISO_A4_(210.00_x_297.00_MM)
  6

 40
7.5
 41
20.0
 42
7.5
 43
20.0
 44
210.0
 45
297.0
 46
0.0
 47
0.0
 48
0.0
 49
0.0
140
0.0
141
0.0
142
1.0
143
1.1673149709
 70
   688
 72
     1
 73
     1
 74
     1
  7

 75
     0
147
0.8566668165
148
239.9999475323
149
99.7886978291
100
AcDbLayout
  1
_Isometric
 70
     1
 71
     7
 10
0.0
 20
0.0
 11
0.0
 21
0.0
 12
0.0
 22
0.0
 32
0.0
 14
0.0
 24
0.0
 34
0.0
 15
0.0
 25
0.0
 35
0.0
146
0.0
 13
0.0
 23
0.0
 33
0.0
 16
1.0
 26
0.0
 36
0.0
 17
0.0
 27
1.0
 37
0.0
 76
     0
330
1CD
331
37F
  0
LAYOUT
  5
19C
102
{ACAD_REACTORS
330
1A
102
}
330
1A
100
AcDbPlotSettings
  1

  2
none_device
  4
ISO_A4_(210.00_x_297.00_MM)
  6

 40
7.5
 41
20.0
 42
7.5
 43
20.0
 44
210.0
 45
297.0
 46
0.0
 47
0.0
 48
0.0
 49
0.0
140
0.0
141
0.0
142
1.0
143
1.1673149709
 70
   688
 72
     1
 73
     1
 74
     1
  7

 75
     0
147
0.8566668165
148
239.9999475323
149
99.7886978291
100
AcDbLayout
  1
_Left
 70
     1
 71
     5
 10
0.0
 20
0.0
 11
0.0
 21
0.0
 12
0.0
 22
0.0
 32
0.0
 14
0.0
 24
0.0
 34
0.0
 15
0.0
 25
0.0
 35
0.0
146
0.0
 13
0.0
 23
0.0
 33
0.0
 16
1.0
 26
0.0
 36
0.0
 17
0.0
 27
1.0
 37
0.0
 76
     0
330
19B
331
37B
  0
LAYOUT
  5
11A
102
{ACAD_REACTORS
330
1A
102
}
330
1A
100
AcDbPlotSettings
  1

  2
none_device
  4
ISO_A4_(210.00_x_297.00_MM)
  6

 40
7.5
 41
20.0
 42
7.5
 43
20.0
 44
210.0
 45
297.0
 46
0.0
 47
0.0
 48
0.0
 49
0.0
140
0.0
141
0.0
142
1.0
143
1.1673149709
 70
   688
 72
     1
 73
     1
 74
     1
  7

 75
     0
147
0.8566668165
148
239.9999475323
149
99.7886978291
100
AcDbLayout
  1
_Right
 70
     1
 71
     3
 10
0.0
 20
0.0
 11
0.0
 21
0.0
 12
0.0
 22
0.0
 32
0.0
 14
0.0
 24
0.0
 34
0.0
 15
0.0
 25
0.0
 35
0.0
146
0.0
 13
0.0
 23
0.0
 33
0.0
 16
1.0
 26
0.0
 36
0.0
 17
0.0
 27
1.0
 37
0.0
 76
     0
330
119
331
377
  0
LAYOUT
  5
26
102
{ACAD_REACTORS
330
1A
102
}
330
1A
100
AcDbPlotSettings
  1

  2
none_device
  4
ISO_A4_(210.00_x_297.00_MM)
  6

 40
7.5
 41
20.0
 42
7.5
 43
20.0
 44
210.0
 45
297.0
 46
0.0
 47
0.0
 48
0.0
 49
0.0
140
0.0
141
0.0
142
1.0
143
1.1673149709
 70
   688
 72
     1
 73
     1
 74
     1
  7

 75
     0
147
0.8566668165
148
239.9999475323
149
99.7886978291
100
AcDbLayout
  1
_Top
 70
     1
 71
     2
 10
0.0
 20
0.0
 11
0.0
 21
0.0
 12
0.0
 22
0.0
 32
0.0
 14
0.0
 24
0.0
 34
0.0
 15
0.0
 25
0.0
 35
0.0
146
0.0
 13
0.0
 23
0.0
 33
0.0
 16
1.0
 26
0.0
 36
0.0
 17
0.0
 27
1.0
 37
0.0
 76
     0
330
23
331
375
  0
LAYOUT
  5
25B
102
{ACAD_REACTORS
330
1A
102
}
330
1A
100
AcDbPlotSettings
  1

  2
none_device
  4
ISO_A4_(210.00_x_297.00_MM)
  6

 40
7.5
 41
20.0
 42
7.5
 43
20.0
 44
210.0
 45
297.0
 46
0.0
 47
0.0
 48
0.0
 49
0.0
140
0.0
141
0.0
142
1.0
143
1.1673149709
 70
   688
 72
     1
 73
     1
 74
     1
  7

 75
     0
147
0.8566668165
148
239.9999475323
149
99.7886978291
100
AcDbLayout
  1
_Trimetric
 70
     1
 71
     8
 10
0.0
 20
0.0
 11
0.0
 21
0.0
 12
0.0
 22
0.0
 32
0.0
 14
0.0
 24
0.0
 34
0.0
 15
0.0
 25
0.0
 35
0.0
146
0.0
 13
0.0
 23
0.0
 33
0.0
 16
1.0
 26
0.0
 36
0.0
 17
0.0
 27
1.0
 37
0.0
 76
     0
330
25A
331
381
  0
LAYOUT
  5
22
102
{ACAD_REACTORS
330
1A
102
}
330
1A
100
AcDbPlotSettings
  1

  2
none_device
  4
ANSI_A_(11.00_x_8.50_Inches)
  6

 40
6.35
 41
19.05
 42
6.35000508
 43
19.05000254
 44
279.4
 45
215.9
 46
216.3317877847
 47
88.8938961417
 48
0.0
 49
0.0
140
0.0
141
0.0
142
0.0363000063
143
1.0
 70
  1696
 72
     0
 73
     0
 74
     0
  7

 75
     0
147
0.0179189148
148
-1300.4909072572
149
0.0
100
AcDbLayout
  1
Model
 70
     1
 71
     0
 10
0.0
 20
0.0
 11
420.0
 21
297.0
 12
0.0
 22
0.0
 32
0.0
 14
-239.9999475323
 24
-99.7886978291
 34
0.0
 15
60.0
 25
99.8019352583
 35
0.0
146
0.0
 13
0.0
 23
0.0
 33
0.0
 16
1.0
 26
0.0
 36
0.0
 17
0.0
 27
1.0
 37
0.0
 76
     0
330
1F
331
29
  0
MLINESTYLE
  5
18
102
{ACAD_REACTORS
330
17
102
}
330
17
100
AcDbMlineStyle
  2
Standard
 70
     0
  3

 62
   256
 51
90.0
 52
90.0
 71
     2
 49
0.5
 62
   256
  6
BYLAYER
 49
-0.5
 62
   256
  6
BYLAYER
  0
ACDBPLACEHOLDER
  5
F
102
{ACAD_REACTORS
330
E
102
}
330
E
  0
SCALE
  5
48
102
{ACAD_REACTORS
330
47
102
}
330
47
100
AcDbScale
 70
     0
300
1:1
140
1.0
141
1.0
290
     1
  0
SCALE
  5
49
102
{ACAD_REACTORS
330
47
102
}
330
47
100
AcDbScale
 70
     0
300
1:2
140
1.0
141
2.0
290
     0
  0
SCALE
  5
4A
102
{ACAD_REACTORS
330
47
102
}
330
47
100
AcDbScale
 70
     0
300
1:4
140
1.0
141
4.0
290
     0
  0
SCALE
  5
4B
102
{ACAD_REACTORS
330
47
102
}
330
47
100
AcDbScale
 70
     0
300
1:5
140
1.0
141
5.0
290
     0
  0
SCALE
  5
4C
102
{ACAD_REACTORS
330
47
102
}
330
47
100
AcDbScale
 70
     0
300
1:8
140
1.0
141
8.0
290
     0
  0
SCALE
  5
4D
102
{ACAD_REACTORS
330
47
102
}
330
47
100
AcDbScale
 70
     0
300
1:10
140
1.0
141
10.0
290
     0
  0
SCALE
  5
4E
102
{ACAD_REACTORS
330
47
102
}
330
47
100
AcDbScale
 70
     0
300
1:16
140
1.0
141
16.0
290
     0
  0
SCALE
  5
4F
102
{ACAD_REACTORS
330
47
102
}
330
47
100
AcDbScale
 70
     0
300
1:20
140
1.0
141
20.0
290
     0
  0
SCALE
  5
50
102
{ACAD_REACTORS
330
47
102
}
330
47
100
AcDbScale
 70
     0
300
1:30
140
1.0
141
30.0
290
     0
  0
SCALE
  5
51
102
{ACAD_REACTORS
330
47
102
}
330
47
100
AcDbScale
 70
     0
300
1:40
140
1.0
141
40.0
290
     0
  0
SCALE
  5
52
102
{ACAD_REACTORS
330
47
102
}
330
47
100
AcDbScale
 70
     0
300
1:50
140
1.0
141
50.0
290
     0
  0
SCALE
  5
53
102
{ACAD_REACTORS
330
47
102
}
330
47
100
AcDbScale
 70
     0
300
1:100
140
1.0
141
100.0
290
     0
  0
SCALE
  5
54
102
{ACAD_REACTORS
330
47
102
}
330
47
100
AcDbScale
 70
     0
300
2:1
140
2.0
141
1.0
290
     0
  0
SCALE
  5
55
102
{ACAD_REACTORS
330
47
102
}
330
47
100
AcDbScale
 70
     0
300
4:1
140
4.0
141
1.0
290
     0
  0
SCALE
  5
56
102
{ACAD_REACTORS
330
47
102
}
330
47
100
AcDbScale
 70
     0
300
8:1
140
8.0
141
1.0
290
     0
  0
SCALE
  5
57
102
{ACAD_REACTORS
330
47
102
}
330
47
100
AcDbScale
 70
     0
300
10:1
140
10.0
141
1.0
290
     0
  0
SCALE
  5
58
102
{ACAD_REACTORS
330
47
102
}
330
47
100
AcDbScale
 70
     0
300
100:1
140
100.0
141
1.0
290
     0
  0
SCALE
  5
59
102
{ACAD_REACTORS
330
47
102
}
330
47
100
AcDbScale
 70
     0
300
1/128" = 1'-0"
140
0.0078125
141
12.0
290
     0
  0
SCALE
  5
5A
102
{ACAD_REACTORS
330
47
102
}
330
47
100
AcDbScale
 70
     0
300
1/64" = 1'-0"
140
0.015625
141
12.0
290
     0
  0
SCALE
  5
5B
102
{ACAD_REACTORS
330
47
102
}
330
47
100
AcDbScale
 70
     0
300
1/32" = 1'-0"
140
0.03125
141
12.0
290
     0
  0
SCALE
  5
5C
102
{ACAD_REACTORS
330
47
102
}
330
47
100
AcDbScale
 70
     0
300
1/16" = 1'-0"
140
0.0625
141
12.0
290
     0
  0
SCALE
  5
5D
102
{ACAD_REACTORS
330
47
102
}
330
47
100
AcDbScale
 70
     0
300
3/32" = 1'-0"
140
0.09375
141
12.0
290
     0
  0
SCALE
  5
5E
102
{ACAD_REACTORS
330
47
102
}
330
47
100
AcDbScale
 70
     0
300
1/8" = 1'-0"
140
0.125
141
12.0
290
     0
  0
SCALE
  5
5F
102
{ACAD_REACTORS
330
47
102
}
330
47
100
AcDbScale
 70
     0
300
3/16" = 1'-0"
140
0.1875
141
12.0
290
     0
  0
SCALE
  5
60
102
{ACAD_REACTORS
330
47
102
}
330
47
100
AcDbScale
 70
     0
300
1/4" = 1'-0"
140
0.25
141
12.0
290
     0
  0
SCALE
  5
61
102
{ACAD_REACTORS
330
47
102
}
330
47
100
AcDbScale
 70
     0
300
3/8" = 1'-0"
140
0.375
141
12.0
290
     0
  0
SCALE
  5
62
102
{ACAD_REACTORS
330
47
102
}
330
47
100
AcDbScale
 70
     0
300
1/2" = 1'-0"
140
0.5
141
12.0
290
     0
  0
SCALE
  5
63
102
{ACAD_REACTORS
330
47
102
}
330
47
100
AcDbScale
 70
     0
300
3/4" = 1'-0"
140
0.75
141
12.0
290
     0
  0
SCALE
  5
64
102
{ACAD_REACTORS
330
47
102
}
330
47
100
AcDbScale
 70
     0
300
1" = 1'-0"
140
1.0
141
12.0
290
     0
  0
SCALE
  5
65
102
{ACAD_REACTORS
330
47
102
}
330
47
100
AcDbScale
 70
     0
300
1-1/2" = 1'-0"
140
1.5
141
12.0
290
     0
  0
SCALE
  5
66
102
{ACAD_REACTORS
330
47
102
}
330
47
100
AcDbScale
 70
     0
300
3" = 1'-0"
140
3.0
141
12.0
290
     0
  0
SCALE
  5
67
102
{ACAD_REACTORS
330
47
102
}
330
47
100
AcDbScale
 70
     0
300
6" = 1'-0"
140
6.0
141
12.0
290
     0
  0
SCALE
  5
68
102
{ACAD_REACTORS
330
47
102
}
330
47
100
AcDbScale
 70
     0
300
1'-0" = 1'-0"
140
12.0
141
12.0
290
     0
  0
ENDSEC
  0
EOF
